<svg width="24" height="25" viewBox="0 0 24 25" fill="none" xmlns="http://www.w3.org/2000/svg">
<circle cx="12" cy="12.5" r="12" fill="#E7426A"/>
<path d="M11.1192 11.59C10.6692 12.05 10.0892 12.28 9.37916 12.28C8.66916 12.28 8.08916 12.05 7.63916 11.59C7.19916 11.12 6.97916 10.535 6.97916 9.835C6.97916 9.125 7.20416 8.535 7.65416 8.065C8.10416 7.585 8.67916 7.345 9.37916 7.345C10.0892 7.345 10.6692 7.585 11.1192 8.065C11.5792 8.535 11.8092 9.125 11.8092 9.835C11.8092 10.535 11.5792 11.12 11.1192 11.59ZM9.24416 17.5H8.43416L14.8242 7.495H15.6492L9.24416 17.5ZM16.3392 16.99C15.8892 17.45 15.3092 17.68 14.5992 17.68C13.8892 17.68 13.3092 17.45 12.8592 16.99C12.4192 16.52 12.1992 15.935 12.1992 15.235C12.1992 14.525 12.4242 13.935 12.8742 13.465C13.3242 12.985 13.8992 12.745 14.5992 12.745C15.3092 12.745 15.8892 12.985 16.3392 13.465C16.7892 13.935 17.0142 14.525 17.0142 15.235C17.0142 15.935 16.7892 16.52 16.3392 16.99ZM8.29916 11.05C8.57916 11.37 8.93916 11.53 9.37916 11.53C9.81916 11.53 10.1842 11.37 10.4742 11.05C10.7642 10.72 10.9092 10.315 10.9092 9.835C10.9092 9.335 10.7642 8.925 10.4742 8.605C10.1942 8.275 9.82916 8.11 9.37916 8.11C8.93916 8.11 8.57916 8.275 8.29916 8.605C8.01916 8.925 7.87916 9.335 7.87916 9.835C7.87916 10.315 8.01916 10.72 8.29916 11.05ZM13.5042 16.45C13.7942 16.77 14.1592 16.93 14.5992 16.93C15.0392 16.93 15.4042 16.77 15.6942 16.45C15.9842 16.12 16.1292 15.715 16.1292 15.235C16.1292 14.735 15.9842 14.325 15.6942 14.005C15.4142 13.675 15.0492 13.51 14.5992 13.51C14.1492 13.51 13.7842 13.675 13.5042 14.005C13.2242 14.325 13.0842 14.735 13.0842 15.235C13.0842 15.715 13.2242 16.12 13.5042 16.45Z" fill="white"/>
</svg>
