<svg width="12" height="17" viewBox="0 0 12 17" fill="none" xmlns="http://www.w3.org/2000/svg">
<path d="M6.00005 8.97056C8.29089 8.97056 10.1539 7.07103 10.1539 4.73528C10.1539 2.39952 8.29089 0.5 6.00005 0.5C3.7092 0.5 1.8462 2.39952 1.8462 4.73528C1.8462 7.07103 3.7092 8.97056 6.00005 8.97056ZM6.00005 2.61764C7.14547 2.61764 8.07697 3.5674 8.07697 4.73528C8.07697 5.90316 7.14547 6.85292 6.00005 6.85292C4.85462 6.85292 3.92312 5.90316 3.92312 4.73528C3.92312 3.5674 4.85462 2.61764 6.00005 2.61764Z" fill="black"/>
<path d="M11.6865 8.32513C11.2673 7.93105 10.5897 7.93105 10.1705 8.32513C7.87188 10.486 4.13013 10.486 1.8304 8.32513C1.4112 7.93105 0.733608 7.93105 0.314403 8.32513C-0.104801 8.7192 -0.104801 9.35617 0.314403 9.75125C1.64814 11.005 3.33889 11.7196 5.08219 11.9061L2.02553 14.7795C1.60633 15.1735 1.60633 15.8105 2.02553 16.2046C2.44473 16.5986 3.12232 16.5986 3.54153 16.2046L5.99993 13.8935L8.45834 16.2046C8.6674 16.4011 8.94187 16.4999 9.21634 16.4999C9.4908 16.4999 9.76527 16.4011 9.97434 16.2046C10.3935 15.8105 10.3935 15.1735 9.97434 14.7795L6.91768 11.9061C8.66097 11.7196 10.3517 11.005 11.6855 9.75125C12.1047 9.35717 12.1047 8.7192 11.6865 8.32513Z" fill="black"/>
</svg>
