<svg width="60" height="32" viewBox="0 0 60 32" fill="none" xmlns="http://www.w3.org/2000/svg">
<path d="M23.4122 21.4032C22.5961 26.998 19.6037 30.511 15.6591 30.576C14.775 30.9664 13.8228 31.2266 12.8707 31.2266C9.06215 31.2266 5.2536 28.1039 2.32917 22.7043C-1.6154 15.4181 0.628927 4.29366 0.696937 3.83827C0.764947 3.44794 1.24102 3.18772 1.64907 3.38288C1.92111 3.51299 5.86568 5.20443 9.87827 8.13193C11.3065 5.20443 13.1427 2.40705 14.911 0.260222C15.047 0.130111 15.251 0 15.4551 0C15.6591 0 15.8631 0.130111 15.9992 0.260222C17.1553 1.62639 18.7876 3.96838 20.1478 6.44049C24.7044 3.57805 30.2132 2.40705 30.8933 2.27694H30.9613C31.0293 2.27694 31.7774 2.21188 31.7774 2.86244C31.7774 3.25277 31.6414 12.7509 27.0848 18.0854C25.8606 19.4516 24.6364 20.5575 23.4122 21.4032Z" fill="#E9D4C6"/>
<path d="M23.4122 21.4032C22.5961 26.998 19.6037 30.511 15.6591 30.576C14.775 30.9664 13.8228 31.2266 12.8707 31.2266C9.06215 31.2266 5.2536 28.1039 2.32917 22.7043C-1.6154 15.4181 0.628927 4.29366 0.696937 3.83827C0.764947 3.44794 1.24102 3.18772 1.64907 3.38288C1.92111 3.51299 5.86568 5.20443 9.87827 8.13193C11.3065 5.20443 13.1427 2.40705 14.911 0.260222C15.047 0.130111 15.251 0 15.4551 0C15.6591 0 15.8631 0.130111 15.9992 0.260222C17.1553 1.62639 18.7876 3.96838 20.1478 6.44049C24.7044 3.57805 30.2132 2.40705 30.8933 2.27694H30.9613C31.0293 2.27694 31.7774 2.21188 31.7774 2.86244C31.7774 3.25277 31.6414 12.7509 27.0848 18.0854C25.8606 19.4516 24.6364 20.5575 23.4122 21.4032ZM25.9966 17.2397C28.445 14.3772 29.5331 10.0836 30.0092 6.96093C28.649 9.75831 26.4727 13.6616 23.6163 16.8494C23.6843 17.6951 23.6843 18.6709 23.6163 19.5817C24.4324 18.9311 25.1805 18.1505 25.9966 17.2397ZM23.4122 15.0278C26.3366 11.3847 28.513 6.96093 29.6011 4.55388C27.6968 5.78993 24.7724 7.87171 22.052 10.4089C22.6641 11.8401 23.1402 13.5315 23.4122 15.0278ZM17.9714 22.1188C18.7876 16.1337 17.3593 8.71743 15.5231 2.86244V2.79738C13.2107 10.1486 10.8304 22.7043 15.5231 28.8846C15.5231 28.8196 17.3593 26.7378 17.9714 22.1188ZM3.48534 22.1188C6.06971 26.9329 9.33419 29.7303 12.5306 29.9255C10.6264 28.9497 9.33419 27.1281 8.51807 25.1114C8.31404 24.5259 4.23345 20.0371 1.51306 8.06687C1.17301 11.9702 1.17301 17.8252 3.48534 22.1188ZM8.17802 12.3605C6.0017 9.56315 3.82539 7.28621 2.39718 5.85499C3.07728 9.0427 4.5735 15.4181 7.42991 20.8177C7.02185 17.4999 7.29389 15.0278 8.17802 12.3605ZM4.77753 6.44049C5.93369 7.67654 7.29389 9.17281 8.65409 10.8643C8.85812 10.3438 9.06215 9.82337 9.26618 9.36798C7.76996 8.13193 6.13772 7.1561 4.77753 6.44049ZM8.65409 17.6951C8.65409 21.9237 9.74225 27.7787 13.9589 29.0798C9.67424 22.7043 11.5785 11.5148 13.6868 4.2286C11.2385 7.87171 8.65409 13.3364 8.65409 17.6951ZM17.0193 29.0798C22.3241 27.5184 23.3442 18.0854 21.2359 12.0353C20.2838 9.36798 18.8556 6.70071 17.3593 4.35871C19.3996 11.6449 21.2359 22.7043 17.0193 29.0798ZM21.5079 9.10776C23.4122 7.35126 25.4525 5.78993 27.1528 4.61893C25.2485 5.26949 22.8681 6.24532 20.8279 7.54643C20.8279 7.67654 21.2359 8.39215 21.5079 9.10776Z" fill="black"/>
<path d="M50.4463 32H25.1242C19.8372 32 15.5705 28.0968 15.5705 23.2603C15.5705 18.4237 19.8372 14.5205 25.1242 14.5205H50.4463C55.7333 14.5205 60 18.4237 60 23.2603C60 28.0968 55.7333 32 50.4463 32Z" fill="#6DCBBA"/>
<path d="M22.9541 21.3169C22.829 21.3622 22.6045 21.4225 22.2806 21.4979C21.9567 21.5658 21.7028 21.611 21.5188 21.6336L21.3973 20.8419C21.7948 20.759 22.207 20.6119 22.6339 20.4008C23.0682 20.1822 23.4215 19.9559 23.6938 19.7222H23.7049L24.5771 19.8466V26.0673L25.8358 26.1917V26.859H21.6292V26.1917L22.9541 26.0786V21.3169Z" fill="black"/>
<path d="M29.5677 26.9721C28.6256 26.9721 27.9042 26.6516 27.4037 26.0107C26.9105 25.3622 26.664 24.4838 26.664 23.3754C26.664 22.5912 26.8075 21.9277 27.0946 21.3848C27.3816 20.8344 27.7607 20.4234 28.2318 20.152C28.7102 19.873 29.2402 19.7335 29.8217 19.7335C30.7712 19.7335 31.4852 20.0427 31.9636 20.661C32.4421 21.2717 32.6813 22.1388 32.6813 23.2623C32.6813 24.0389 32.5414 24.71 32.2617 25.2755C31.9894 25.8335 31.6177 26.2558 31.1466 26.5423C30.6755 26.8288 30.1492 26.9721 29.5677 26.9721ZM29.6781 26.2935C30.1419 26.2935 30.4805 26.0522 30.6939 25.5696C30.9147 25.0795 31.0251 24.3519 31.0251 23.3867C31.0251 22.3613 30.9221 21.611 30.716 21.136C30.5173 20.6534 30.175 20.4121 29.6892 20.4121C28.7765 20.4121 28.3201 21.3584 28.3201 23.251C28.3201 24.2614 28.4268 25.0229 28.6403 25.5357C28.8611 26.0409 29.2071 26.2935 29.6781 26.2935Z" fill="black"/>
<path d="M36.8242 26.9721C35.882 26.9721 35.1607 26.6516 34.6601 26.0107C34.167 25.3622 33.9204 24.4838 33.9204 23.3754C33.9204 22.5912 34.0639 21.9277 34.351 21.3848C34.6381 20.8344 35.0171 20.4234 35.4882 20.152C35.9667 19.873 36.4966 19.7335 37.0781 19.7335C38.0276 19.7335 38.7416 20.0427 39.2201 20.661C39.6985 21.2717 39.9377 22.1388 39.9377 23.2623C39.9377 24.0389 39.7979 24.71 39.5182 25.2755C39.2458 25.8335 38.8741 26.2558 38.403 26.5423C37.9319 26.8288 37.4057 26.9721 36.8242 26.9721ZM36.9346 26.2935C37.3983 26.2935 37.7369 26.0522 37.9503 25.5696C38.1712 25.0795 38.2816 24.3519 38.2816 23.3867C38.2816 22.3613 38.1785 21.611 37.9724 21.136C37.7737 20.6534 37.4314 20.4121 36.9456 20.4121C36.0329 20.4121 35.5765 21.3584 35.5765 23.251C35.5765 24.2614 35.6833 25.0229 35.8967 25.5357C36.1175 26.0409 36.4635 26.2935 36.9346 26.2935Z" fill="black"/>
<path d="M47.6579 18.365H48.6847L45.1405 26.859H44.1248L47.6579 18.365ZM43.1532 23.2962C42.7189 23.2962 42.3472 23.1907 42.038 22.9796C41.7289 22.7684 41.4933 22.4819 41.3314 22.12C41.1695 21.758 41.0885 21.3584 41.0885 20.9211C41.0885 20.4159 41.1879 19.9786 41.3866 19.6091C41.5853 19.2321 41.854 18.9456 42.1926 18.7495C42.5385 18.5535 42.9213 18.4555 43.3409 18.4555C44.0548 18.4555 44.5774 18.6741 44.9087 19.1114C45.2473 19.5488 45.4166 20.1294 45.4166 20.8532C45.4166 21.3584 45.3135 21.7957 45.1074 22.1652C44.9087 22.5347 44.6363 22.8174 44.2904 23.0135C43.9444 23.202 43.5654 23.2962 43.1532 23.2962ZM43.2415 22.6176C43.5506 22.6176 43.7751 22.4668 43.915 22.1652C44.0622 21.8561 44.1358 21.4338 44.1358 20.8985C44.1358 20.3857 44.0659 19.9673 43.926 19.643C43.7935 19.3113 43.5764 19.1454 43.2746 19.1454C42.9728 19.1454 42.7483 19.2962 42.6011 19.5978C42.4539 19.8994 42.3803 20.3179 42.3803 20.8532C42.3803 21.3358 42.4502 21.7505 42.5901 22.0974C42.7299 22.4442 42.9471 22.6176 43.2415 22.6176ZM49.4796 26.7006C49.0527 26.7006 48.681 26.5951 48.3645 26.3839C48.0554 26.1653 47.8198 25.8788 47.6579 25.5244C47.4959 25.1624 47.415 24.7628 47.415 24.3255C47.415 23.8203 47.5143 23.383 47.7131 23.0135C47.9118 22.6365 48.1842 22.3499 48.5301 22.1539C48.8761 21.9579 49.2588 21.8598 49.6784 21.8598C50.385 21.8598 50.9039 22.0785 51.2352 22.5158C51.5738 22.9532 51.743 23.5338 51.743 24.2576C51.743 24.7628 51.64 25.2001 51.4339 25.5696C51.2352 25.9391 50.9628 26.2218 50.6169 26.4179C50.2709 26.6064 49.8918 26.7006 49.4796 26.7006ZM49.568 26.0107C49.8771 26.0107 50.1016 25.8599 50.2415 25.5583C50.3887 25.2567 50.4623 24.8382 50.4623 24.3029C50.4623 23.7977 50.3924 23.3792 50.2525 23.0474C50.12 22.7156 49.9066 22.5498 49.6121 22.5498C49.303 22.5498 49.0748 22.7006 48.9276 23.0022C48.7804 23.3038 48.7068 23.7223 48.7068 24.2576C48.7068 24.7402 48.7767 25.1549 48.9166 25.5017C49.0564 25.8411 49.2735 26.0107 49.568 26.0107Z" fill="black"/>
</svg>
