<svg width="43" height="34" viewBox="0 0 43 34" fill="none" xmlns="http://www.w3.org/2000/svg">
<path d="M0 25.1829V8.29726C0 8.04772 0.16475 7.79818 0.329501 7.715H0.411876L16.5574 0.0623854C16.8045 -0.0207951 17.0517 -0.0207951 17.2164 0.0623854L33.362 7.715H33.4443C33.6091 7.79818 33.7738 8.04772 33.7738 8.29726V25.1829C33.7738 25.4325 33.6091 25.682 33.362 25.8484L17.2988 33.501C17.134 33.5841 16.9693 33.5842 16.8045 33.5842H16.6398L0.411876 25.8484C0.16475 25.682 0 25.4325 0 25.1829Z" fill="#E9D4C6"/>
<path d="M0 25.1829V8.29726C0 8.04772 0.16475 7.79818 0.329501 7.715H0.411876L16.5574 0.0623854C16.8045 -0.0207951 17.0517 -0.0207951 17.2164 0.0623854L33.362 7.715H33.4443C33.6091 7.79818 33.7738 8.04772 33.7738 8.29726V25.1829C33.7738 25.4325 33.6091 25.682 33.362 25.8484L17.2988 33.501C17.134 33.5841 16.9693 33.5842 16.8045 33.5842H16.6398L0.411876 25.8484C0.16475 25.682 0 25.4325 0 25.1829ZM16.8869 1.47645L2.47126 8.29726L7.08427 10.46L21.4999 3.63915L16.8869 1.47645ZM16.8869 15.1181L31.3026 8.29726L26.4425 5.96821L12.0268 12.789L16.8869 15.1181ZM10.2969 12.0404L24.7126 5.21958L23.2298 4.47096L8.81415 11.2918L10.2969 12.0404ZM9.55553 13.2881L7.82565 12.4563V19.2771L9.55553 20.1921V13.2881ZM32.2087 9.46179L17.6283 16.3658V31.671L32.2087 24.767V9.46179ZM1.48275 24.767L16.1455 31.5878V16.3658L11.1207 13.9535V21.2734C11.1207 21.6893 10.7912 22.0221 10.3793 22.0221C10.2969 22.0221 10.1322 22.0221 10.0498 21.9389L6.75477 20.2753C6.50764 20.1089 6.34289 19.9425 6.34289 19.6098V11.6245L1.56513 9.37861V24.767H1.48275Z" fill="black"/>
<path d="M21.418 23.1864C21.5004 22.6041 21.8299 22.1051 22.4065 21.8555C22.4889 21.7723 22.6536 21.7723 22.736 21.6892C22.8184 21.606 22.8184 21.4396 22.8184 21.2733C22.8184 20.9405 23.0655 20.6078 23.2302 20.2751C23.9716 19.1937 24.713 18.0292 25.7839 17.3638C26.4429 16.9479 27.1842 16.6983 27.9256 16.532C29.8203 16.0329 31.7149 15.8665 33.6919 16.0329C35.5865 16.2824 37.4812 16.9479 38.9639 18.1956C39.5405 18.6947 40.1172 19.2769 40.3643 20.0255C40.529 20.691 40.529 21.5228 41.1057 21.9387C41.3528 22.1051 41.6823 22.1882 41.9294 22.4378C42.506 22.8537 42.506 23.8519 42.1765 24.5173C42.0942 24.6837 42.0118 24.85 42.0118 24.9332C41.9294 25.4323 42.4237 25.765 42.4237 26.2641C42.4237 26.8464 41.6823 27.1791 41.2704 27.595C40.9409 27.9277 40.7762 28.3436 40.6938 28.8427C40.4467 29.6745 40.1172 30.5895 39.6229 31.2549C39.1287 32.0035 38.3873 32.669 37.5635 32.8354C37.0693 32.9185 36.6574 32.9185 36.1632 33.0017C35.916 33.0849 35.6689 33.1681 35.3394 33.1681C34.8451 33.2513 34.3509 33.2513 33.8566 33.2513C32.5386 33.2513 31.1383 33.1681 29.8203 33.1681C28.9965 33.1681 28.1727 33.1681 27.4314 32.9185C26.4429 32.5858 25.6191 31.9204 24.8777 31.1717C24.3835 30.6727 23.9716 30.0904 23.7245 29.3418C23.5597 28.6763 23.4774 27.8445 22.9007 27.4286C22.6536 27.2623 22.4065 27.2623 22.2417 27.0959C21.9122 26.8464 21.7475 26.3473 21.7475 25.9314C21.7475 25.4323 22.077 25.0164 21.9946 24.5173C21.8299 24.1014 21.3356 23.7687 21.418 23.1864Z" fill="#9EBFFF"/>
<path d="M22.1591 21.4399C21.3353 21.6894 20.6763 22.5213 20.6763 23.4362C20.6763 24.0185 20.9234 24.4344 21.2529 24.8503C20.9234 25.183 20.6763 25.6821 20.6763 26.2644C20.6763 27.1794 21.3353 28.0112 22.1591 28.2607C22.8181 31.5879 25.7012 34.0002 29.0786 34.0002H34.5977C37.9751 34.0002 40.8582 31.5879 41.5172 28.2607C42.341 28.0112 43 27.1794 43 26.2644C43 25.6821 42.7529 25.2662 42.4234 24.8503C42.7529 24.5176 43 24.0185 43 23.4362C43 22.5213 42.341 21.6894 41.5172 21.4399C40.8582 18.1127 37.9751 15.7004 34.5977 15.7004H29.161C25.7012 15.7004 22.8181 18.1127 22.1591 21.4399ZM34.5977 32.5029H29.161C26.6073 32.5029 24.3832 30.7561 23.7242 28.2607H40.1169C39.3755 30.7561 37.1514 32.5029 34.5977 32.5029ZM41.5996 26.1812C41.5996 26.5971 41.2701 26.8466 40.9406 26.8466H22.8181C22.4062 26.8466 22.1591 26.5139 22.1591 26.1812C22.1591 25.8485 22.4886 25.5158 22.8181 25.5158H40.8582C41.2701 25.5158 41.5996 25.8485 41.5996 26.1812ZM39.2107 22.6876H40.8582C41.2701 22.6876 41.5172 23.0203 41.5172 23.3531C41.5172 23.6858 41.2701 24.1017 40.8582 24.1017H22.8181C22.4062 24.1017 22.1591 23.769 22.1591 23.4362C22.1591 23.1035 22.4886 22.7708 22.8181 22.7708H24.4656L25.0422 22.1885C25.1246 22.1053 25.2893 22.0222 25.3717 22.0222H25.7836C25.9483 22.0222 26.0307 22.1053 26.1131 22.1885C26.4426 22.5213 26.9368 22.7708 27.4311 22.7708H27.843C28.3372 22.7708 28.8315 22.6044 29.161 22.1885C29.2433 22.1053 29.4081 22.0222 29.4905 22.0222H29.9023C30.0671 22.0222 30.1495 22.1053 30.2318 22.1885C30.5613 22.5213 31.0556 22.7708 31.5498 22.7708H31.9617C32.456 22.7708 32.9502 22.6044 33.2797 22.1885C33.3621 22.1053 33.5268 22.0222 33.6092 22.0222H34.0211C34.1858 22.0222 34.2682 22.1053 34.3506 22.1885C34.6801 22.5213 35.1743 22.7708 35.6686 22.7708H36.2452C36.7395 22.7708 37.2337 22.6044 37.5632 22.1885C37.6456 22.1053 37.8104 22.0222 37.8927 22.0222H38.3046C38.4694 22.0222 38.5517 22.1053 38.6341 22.1885L39.2107 22.6876ZM34.5977 17.1145C37.1514 17.1145 39.3755 18.8613 40.0345 21.3567H39.7874L39.6226 21.1904C39.2931 20.8576 38.7989 20.6081 38.3046 20.6081H37.8927C37.3985 20.6081 36.9042 20.7745 36.5747 21.1904C36.4924 21.2735 36.3276 21.3567 36.2452 21.3567H35.8334C35.6686 21.3567 35.5862 21.2735 35.5039 21.1904C35.1744 20.8576 34.6801 20.6081 34.1858 20.6081H33.774C33.2797 20.6081 32.7855 20.7745 32.456 21.1904C32.3736 21.2735 32.2088 21.3567 32.1265 21.3567H31.7146C31.5498 21.3567 31.4675 21.2735 31.3851 21.1904C31.0556 20.8576 30.5613 20.6081 30.0671 20.6081H29.6552C29.161 20.6081 28.6667 20.7745 28.3372 21.1904C28.2548 21.2735 28.0901 21.3567 28.0077 21.3567H27.5958C27.4311 21.3567 27.3487 21.2735 27.2663 21.1904C26.9368 20.8576 26.4426 20.6081 25.9483 20.6081H25.5364C25.0422 20.6081 24.5479 20.7745 24.2184 21.1904L23.8889 21.2735H23.6418C24.3008 18.8613 26.5249 17.0313 29.0786 17.0313H34.5977V17.1145Z" fill="black"/>
</svg>
