<svg width="43" height="40" viewBox="0 0 43 40" fill="none" xmlns="http://www.w3.org/2000/svg">
<path d="M10.1457 18.5714C10.2462 17.9592 10.6481 17.347 11.1505 17.1429C11.251 17.0408 11.452 17.0408 11.452 16.9388C11.5524 16.8368 11.5524 16.6327 11.5524 16.4286C11.5524 16.0204 11.7534 15.7143 11.9543 15.3061C12.7582 14.0817 13.562 12.8572 14.7677 12.1429C15.4711 11.7347 16.2749 11.4286 17.0787 11.2245C19.0883 10.7143 21.2988 10.4082 23.4088 10.7143C25.5189 10.9184 27.6289 11.7347 29.2366 13.0613C29.9399 13.5715 30.4423 14.2857 30.7437 15.1021C30.9447 15.8164 30.9447 16.7347 31.5476 17.2449C31.849 17.449 32.1504 17.551 32.4519 17.7551C33.0547 18.2653 33.0547 19.2857 32.7533 20C32.6528 20.2041 32.5523 20.3061 32.5523 20.5102C32.4519 21.0204 33.0547 21.4286 33.0547 22.0408C33.0547 22.7551 32.2509 23.0612 31.849 23.4694C31.5476 23.8776 31.3466 24.2857 31.2461 24.7959C30.9447 25.7143 30.6433 26.6326 30.1409 27.449C29.6385 28.2653 28.8346 28.9796 27.9303 29.1837C27.428 29.2857 26.9256 29.2857 26.4232 29.3877C26.1217 29.4898 25.8203 29.5918 25.5189 29.5918C25.0165 29.6939 24.5141 29.6939 23.9112 29.6939C22.4041 29.6939 20.9974 29.5918 19.4902 29.5918C18.5859 29.5918 17.6816 29.5918 16.8778 29.2857C15.7725 28.9796 14.8682 28.2653 14.0644 27.3469C13.562 26.7347 13.0596 26.1224 12.8586 25.4082C12.6577 24.6939 12.6577 23.7755 11.9543 23.3674C11.7534 23.1633 11.452 23.1633 11.1505 22.9592C10.7486 22.6531 10.6481 22.1429 10.6481 21.7347C10.6481 21.2245 11.05 20.7143 10.9496 20.2041C10.5477 19.5919 10.0453 19.2857 10.1457 18.5714Z" fill="#C1ECC0"/>
<path d="M10.2464 16.4285C9.24159 16.7347 8.53824 17.653 8.53824 18.7755C8.53824 19.3877 8.7392 19.9999 9.14111 20.4081C8.7392 20.8163 8.53824 21.4285 8.53824 22.0408C8.53824 23.1632 9.24159 24.0816 10.2464 24.3877C11.0502 28.2652 14.366 31.1224 18.2846 31.1224H24.7152C28.6338 31.1224 32.0501 28.2652 32.7534 24.3877C33.7582 24.0816 34.4616 23.1632 34.4616 22.0408C34.4616 21.4285 34.2606 20.8163 33.8587 20.4081C34.2606 19.9999 34.4616 19.3877 34.4616 18.7755C34.4616 17.653 33.7582 16.7347 32.7534 16.4285C31.9496 12.551 28.6338 9.69385 24.7152 9.69385H18.2846C14.366 9.69385 11.0502 12.551 10.2464 16.4285ZM24.7152 29.4897H18.2846C15.2703 29.4897 12.6578 27.4489 11.9545 24.5918H31.0453C30.2415 27.3469 27.7295 29.4897 24.7152 29.4897ZM32.8539 22.0408C32.8539 22.4489 32.452 22.8571 32.0501 22.8571H10.9497C10.5478 22.8571 10.1459 22.4489 10.1459 22.0408C10.1459 21.6326 10.5478 21.2244 10.9497 21.2244H32.0501C32.452 21.2244 32.8539 21.6326 32.8539 22.0408ZM30.0405 17.9591H31.9496C32.3515 17.9591 32.7534 18.3673 32.7534 18.7755C32.7534 19.1836 32.3515 19.5918 31.9496 19.5918H10.8492C10.4473 19.5918 10.0454 19.1836 10.0454 18.7755C10.0454 18.3673 10.4473 17.9591 10.8492 17.9591H12.7583L13.3612 17.3469C13.4617 17.2449 13.6626 17.1428 13.7631 17.1428H14.2655C14.4664 17.1428 14.5669 17.2449 14.6674 17.3469C15.0693 17.7551 15.6722 17.9591 16.1746 17.9591H16.677C17.2798 17.9591 17.7822 17.7551 18.1841 17.3469C18.2846 17.2449 18.4856 17.1428 18.586 17.1428H19.0884C19.2894 17.1428 19.3899 17.2449 19.4903 17.3469C19.8923 17.7551 20.4951 17.9591 20.9975 17.9591H21.4999C22.1028 17.9591 22.6052 17.7551 23.0071 17.3469C23.1076 17.2449 23.3085 17.1428 23.409 17.1428H23.9114C24.1123 17.1428 24.2128 17.2449 24.3133 17.3469C24.7152 17.7551 25.3181 17.9591 25.8205 17.9591H26.6243C27.2271 17.9591 27.7295 17.7551 28.1315 17.3469C28.2319 17.2449 28.4329 17.1428 28.5334 17.1428H29.0358C29.2367 17.1428 29.3372 17.2449 29.4377 17.3469L30.0405 17.9591ZM24.7152 11.3265C27.7295 11.3265 30.342 13.3673 31.0453 16.2244H30.7439L30.5429 16.0204C30.141 15.6122 29.5381 15.4081 29.0358 15.4081H28.5334C27.9305 15.4081 27.4281 15.6122 27.0262 16.0204C26.9257 16.2244 26.7248 16.3265 26.6243 16.3265H26.1219C25.9209 16.3265 25.8205 16.2244 25.72 16.1224C25.3181 15.7142 24.7152 15.5102 24.2128 15.5102H23.7104C23.1076 15.5102 22.6052 15.7142 22.2032 16.1224C22.1028 16.2244 21.9018 16.3265 21.8013 16.3265H21.2989C21.098 16.3265 20.9975 16.2244 20.897 16.1224C20.4951 15.7142 19.8923 15.5102 19.3899 15.5102H18.8875C18.2846 15.5102 17.7822 15.7142 17.3803 16.1224C17.2798 16.2244 17.0789 16.3265 16.9784 16.3265H16.476C16.275 16.3265 16.1746 16.2244 16.0741 16.1224C15.6722 15.7142 15.0693 15.5102 14.5669 15.5102H14.0645C13.4617 15.5102 12.9593 15.7142 12.5574 16.1224L12.2559 16.3265H11.9545C12.7583 13.4694 15.2703 11.4285 18.2846 11.4285H24.7152V11.3265Z" fill="black"/>
<path d="M31.8492 2.85714C31.8492 3.2653 31.4473 3.67346 31.0454 3.67346H29.8397V4.89795C29.8397 5.30611 29.4378 5.71427 29.0359 5.71427C28.6339 5.71427 28.232 5.30611 28.232 4.89795V3.7755H27.0263C26.6244 3.7755 26.2225 3.36734 26.2225 2.95918C26.2225 2.55101 26.4234 2.04081 26.9258 2.04081H28.1315V0.816324C28.1315 0.408162 28.5335 0 28.9354 0C29.3373 0 29.7392 0.408162 29.7392 0.816324V2.04081H30.9449C31.4473 2.04081 31.8492 2.44897 31.8492 2.85714Z" fill="black"/>
<path d="M42.5 27.2447C42.5 27.6529 42.0981 28.0611 41.6962 28.0611H40.4904V29.2855C40.4904 29.6937 40.0885 30.1019 39.6866 30.1019C39.2847 30.1019 38.8828 29.6937 38.8828 29.2855V28.0611H37.6771C37.2751 28.0611 36.8732 27.6529 36.8732 27.2447C36.8732 26.8366 37.2751 26.4284 37.6771 26.4284H38.8828V25.2039C38.8828 24.7958 39.2847 24.3876 39.6866 24.3876C40.0885 24.3876 40.4904 24.7958 40.4904 25.2039V26.4284H41.6962C42.1986 26.4284 42.5 26.7345 42.5 27.2447Z" fill="black"/>
<path d="M6.22725 11.6326C6.22725 12.0408 5.82533 12.4489 5.42342 12.4489H4.21769V13.6734C4.21769 14.0816 3.81577 14.4898 3.41386 14.4898C3.01195 14.4898 2.50956 14.1836 2.50956 13.6734V12.4489H1.30382C0.901912 12.4489 0.5 12.0408 0.5 11.6326C0.5 11.2245 0.901912 10.8163 1.30382 10.8163H2.50956V9.48977C2.50956 9.08161 2.91147 8.67345 3.31338 8.67345C3.7153 8.67345 4.11721 9.08161 4.11721 9.48977V10.7143H5.32294C5.82533 10.8163 6.22725 11.1224 6.22725 11.6326Z" fill="black"/>
<path d="M16.9782 37.1429C16.9782 37.551 16.5763 37.9592 16.1744 37.9592H14.9686V39.1837C14.9686 39.5918 14.5667 40 14.1648 40C13.7629 40 13.361 39.5918 13.361 39.1837V37.9592H12.1553C11.7533 37.9592 11.3514 37.551 11.3514 37.1429C11.3514 36.7347 11.7533 36.3265 12.1553 36.3265H13.361V35.1021C13.361 34.6939 13.7629 34.2857 14.1648 34.2857C14.5667 34.2857 14.9686 34.6939 14.9686 35.1021V36.3265H16.1744C16.5763 36.3265 16.9782 36.6327 16.9782 37.1429Z" fill="black"/>
<path d="M39.0836 12.1429C39.8605 12.1429 40.4902 11.5033 40.4902 10.7144C40.4902 9.92538 39.8605 9.28579 39.0836 9.28579C38.3067 9.28579 37.6769 9.92538 37.6769 10.7144C37.6769 11.5033 38.3067 12.1429 39.0836 12.1429Z" fill="black"/>
<path d="M29.7393 38.6735C30.5162 38.6735 31.146 38.0339 31.146 37.2449C31.146 36.4559 30.5162 35.8163 29.7393 35.8163C28.9624 35.8163 28.3326 36.4559 28.3326 37.2449C28.3326 38.0339 28.9624 38.6735 29.7393 38.6735Z" fill="black"/>
<path d="M2.50966 30.1022C3.28655 30.1022 3.91635 29.4626 3.91635 28.6736C3.91635 27.8846 3.28655 27.245 2.50966 27.245C1.73276 27.245 1.10297 27.8846 1.10297 28.6736C1.10297 29.4626 1.73276 30.1022 2.50966 30.1022Z" fill="black"/>
<path d="M13.2605 3.87754C14.0374 3.87754 14.6672 3.23795 14.6672 2.44897C14.6672 1.66 14.0374 1.02041 13.2605 1.02041C12.4836 1.02041 11.8538 1.66 11.8538 2.44897C11.8538 3.23795 12.4836 3.87754 13.2605 3.87754Z" fill="black"/>
</svg>
