<svg width="45" height="32" viewBox="0 0 45 32" fill="none" xmlns="http://www.w3.org/2000/svg">
<path d="M44.85 16.5012L38.85 9.17587C38.7 9.02166 38.475 8.86744 38.25 8.86744H30V21.2048H0V26.6024C0 27.065 0.3 27.3735 0.75 27.3735H5.1C5.025 27.6048 5.025 27.9132 5.025 28.1445C5.025 30.3036 6.675 32 8.775 32C10.875 32 12.525 30.3036 12.525 28.1445C12.525 27.9132 12.525 27.6048 12.45 27.3735H33.075C33 27.6048 33 27.9132 33 28.1445C33 30.3036 34.65 32 36.75 32C38.85 32 40.5 30.3036 40.5 28.1445C40.5 27.9132 40.5 27.6048 40.425 27.3735H44.25C44.7 27.3735 45 27.065 45 26.6024V16.9638C45 16.8096 44.925 16.6554 44.85 16.5012Z" fill="#FFE9D9"/>
<path d="M10.0501 1.31083C12.3001 0.385531 14.7751 0.462639 17.1751 0.539748C18.4501 0.616856 19.8001 0.693965 21.0001 1.15662C22.9501 1.9277 24.4501 3.62409 24.9751 5.6289C25.0501 5.86023 25.1251 6.16866 25.2751 6.32288C25.4251 6.55421 25.7251 6.63131 25.9501 6.78553C26.7001 7.32529 26.9251 8.40481 26.5501 9.253C26.4001 9.48433 26.2501 9.71565 26.2501 9.94698C26.1751 10.3325 26.4751 10.641 26.5501 10.9494C26.7751 11.5663 26.6251 12.3373 26.1001 12.7229C25.8751 12.9542 25.5751 13.0313 25.3501 13.2626C25.0501 13.494 24.9001 13.8795 24.7501 14.1879C24.3751 14.8819 24.0001 15.5759 23.5501 16.2699C23.0251 17.1181 22.5001 17.9663 21.6001 18.506C21.0001 18.9687 20.2501 19.1229 19.5001 19.2C17.2501 19.4313 14.9251 19.4313 12.6751 19.2771C11.7001 19.2 10.6501 19.2 9.67514 18.8144C7.57514 18.0434 6.15014 15.9614 5.77514 13.7253C5.70014 13.4169 5.70014 13.0313 5.40014 12.8771C5.17514 12.7229 4.95014 12.8 4.72514 12.7229C4.27514 12.5687 4.05014 11.9518 4.12514 11.412C4.20014 10.8723 4.57514 10.4867 4.87514 10.1012C4.20014 9.71565 3.75014 8.86746 3.97514 8.01927C4.12514 6.93975 4.95014 7.09396 5.47514 6.55421C5.92514 6.09155 6.00014 5.01204 6.37514 4.39517C7.20014 2.93011 8.55014 1.85059 10.0501 1.31083Z" fill="#FFA8A8"/>
<path d="M44.85 16.5012L38.85 9.17587C38.7 9.02166 38.475 8.86744 38.25 8.86744H30V21.2048H0V26.6024C0 27.065 0.3 27.3735 0.75 27.3735H5.1C5.025 27.6048 5.025 27.9132 5.025 28.1445C5.025 30.3036 6.675 32 8.775 32C10.875 32 12.525 30.3036 12.525 28.1445C12.525 27.9132 12.525 27.6048 12.45 27.3735H33.075C33 27.6048 33 27.9132 33 28.1445C33 30.3036 34.65 32 36.75 32C38.85 32 40.5 30.3036 40.5 28.1445C40.5 27.9132 40.5 27.6048 40.425 27.3735H44.25C44.7 27.3735 45 27.065 45 26.6024V16.9638C45 16.8096 44.925 16.6554 44.85 16.5012ZM42.6752 16.1925H37.5002V13.4937H40.4252L42.6752 16.1925ZM8.77523 30.4574C7.50023 30.4574 6.52523 29.455 6.52523 28.1442C6.52523 27.7586 6.60023 27.3731 6.82523 26.9875C7.20023 26.2936 7.95023 25.8309 8.77523 25.8309C9.00023 25.8309 9.15023 25.8309 9.37523 25.908C9.75023 25.9851 10.1252 26.2165 10.3502 26.5249C10.5002 26.6791 10.5752 26.8333 10.7252 26.9875C10.9502 27.3731 11.0252 27.7586 11.0252 28.1442C11.0252 29.455 9.97523 30.4574 8.77523 30.4574ZM36.7499 30.4574C35.4749 30.4574 34.4999 29.455 34.4999 28.1442C34.4999 27.7586 34.5749 27.3731 34.7999 26.9875C35.1749 26.2936 35.9249 25.8309 36.7499 25.8309C36.9749 25.8309 37.1249 25.8309 37.3499 25.908C37.7249 25.9851 38.0999 26.2165 38.3249 26.5249C38.4749 26.6791 38.5499 26.8333 38.6999 26.9875C38.9249 27.3731 38.9999 27.7586 38.9999 28.1442C38.9999 29.455 38.0249 30.4574 36.7499 30.4574ZM43.5 25.8313H39.75C39.75 25.7542 39.675 25.7542 39.675 25.6771C39.6 25.6 39.525 25.5229 39.45 25.4458C39.375 25.3686 39.375 25.3686 39.3 25.2915C39.225 25.2144 39.15 25.1373 39.075 25.1373C39 25.0602 39 25.0602 38.925 25.0602C38.85 24.9831 38.775 24.9831 38.7 24.906C38.625 24.906 38.625 24.8289 38.55 24.8289C38.475 24.7518 38.4 24.7518 38.325 24.6747C38.25 24.6747 38.175 24.5976 38.175 24.5976C38.1 24.5976 38.025 24.5205 37.875 24.5205C37.8 24.5205 37.725 24.5205 37.725 24.4433C37.65 24.4433 37.5 24.3662 37.425 24.3662C37.35 24.3662 37.35 24.3662 37.275 24.3662C37.125 24.3662 36.975 24.3662 36.825 24.3662C36.675 24.3662 36.525 24.3662 36.375 24.3662C36.3 24.3662 36.3 24.3662 36.225 24.3662C36.15 24.3662 36 24.3662 35.925 24.4433C35.85 24.4433 35.7752 24.4433 35.7752 24.5204C35.7002 24.5204 35.625 24.5976 35.475 24.5976C35.4 24.5976 35.3252 24.6746 35.3252 24.6746C35.2502 24.7517 35.175 24.7518 35.1 24.8289C35.025 24.8289 35.0252 24.9059 34.9502 24.9059C34.8752 24.983 34.8 24.9831 34.725 25.0602C34.65 25.0602 34.6502 25.1372 34.5752 25.1372C34.5002 25.2144 34.425 25.2915 34.35 25.2915C34.275 25.3686 34.275 25.3686 34.2 25.4458C34.125 25.5229 34.05 25.6 33.975 25.6771C33.975 25.7542 33.9 25.7542 33.9 25.8313H11.775C11.775 25.7542 11.7 25.7542 11.7 25.6771C11.625 25.6 11.55 25.5229 11.475 25.4458C11.4 25.3686 11.4 25.3686 11.325 25.2915C11.25 25.2144 11.175 25.1373 11.1 25.1373C11.025 25.0602 11.025 25.0602 10.95 25.0602C10.875 24.9831 10.8 24.9831 10.725 24.906C10.65 24.906 10.65 24.8289 10.575 24.8289C10.5 24.7518 10.425 24.7518 10.35 24.6747C10.275 24.6747 10.2 24.5976 10.2 24.5976C10.125 24.5976 10.05 24.5205 9.9 24.5205C9.825 24.5205 9.75 24.5205 9.75 24.4433C9.675 24.4433 9.525 24.3662 9.45 24.3662C9.375 24.3662 9.375 24.3662 9.3 24.3662C9.15 24.3662 9 24.3662 8.85 24.3662C8.7 24.3662 8.55 24.3662 8.4 24.3662C8.325 24.3662 8.325 24.3662 8.25 24.3662C8.175 24.3662 8.025 24.3662 7.95 24.4433C7.875 24.4433 7.80016 24.4433 7.80016 24.5204C7.72516 24.5204 7.65 24.5976 7.575 24.5976C7.5 24.5976 7.425 24.6747 7.35 24.6747C7.275 24.6747 7.2 24.7518 7.125 24.7518C7.05 24.7518 6.975 24.8289 6.9 24.8289C6.825 24.906 6.75 24.906 6.675 24.9831C6.6 25.0602 6.525 25.0602 6.525 25.1373C6.45 25.2144 6.45 25.2144 6.375 25.2915C6.3 25.3686 6.225 25.3686 6.225 25.4458C6 25.5229 6.00017 25.5999 5.92517 25.677C5.85017 25.7541 5.85017 25.8312 5.77517 25.8312H1.50017V22.7469H30.7502C31.2002 22.7469 31.5002 22.4385 31.5002 21.9758V10.4095H37.8752L39.1502 11.9517H36.7502C36.3002 11.9517 36.0002 12.2601 36.0002 12.7228V16.9638C36.0002 17.4264 36.3 17.7349 36.75 17.7349H43.5V25.8313Z" fill="black"/>
<path d="M25.65 6.24578C24.975 2.62169 21.9 0 18.225 0H12.375C8.775 0 5.7 2.62169 4.95 6.24578C4.05 6.55422 3.375 7.40241 3.375 8.40482C3.375 9.02169 3.6 9.56144 3.975 9.94699C3.6 10.3325 3.375 10.8723 3.375 11.4892C3.375 12.4916 4.05 13.4169 4.95 13.6482C5.625 17.2723 8.7 19.894 12.375 19.894H18.225C21.825 19.894 24.9 17.2723 25.65 13.6482C26.55 13.3398 27.225 12.4916 27.225 11.4892C27.225 10.8723 27 10.3325 26.625 9.94699C27 9.56144 27.225 9.02169 27.225 8.40482C27.3 7.40241 26.625 6.55422 25.65 6.24578ZM12.375 1.54217H18.225C21 1.54217 23.325 3.46988 24.075 6.16867H23.775L23.625 6.01446C23.325 5.55181 22.8 5.39759 22.275 5.39759H21.825C21.3 5.39759 20.775 5.62892 20.4 6.01446C20.325 6.09157 20.175 6.16867 20.025 6.16867H19.575C19.425 6.16867 19.275 6.09157 19.2 6.01446C18.825 5.55181 18.3 5.39759 17.775 5.39759H17.325C16.8 5.39759 16.275 5.62892 15.9 6.01446C15.825 6.09157 15.675 6.16867 15.525 6.16867H15.075C14.925 6.16867 14.775 6.09157 14.7 6.01446C14.4 5.55181 13.875 5.39759 13.35 5.39759H12.9C12.375 5.39759 11.85 5.62892 11.475 6.01446C11.4 6.09157 11.25 6.16867 11.1 6.16867H10.65C10.5 6.16867 10.35 6.09157 10.275 6.01446C9.9 5.55181 9.375 5.39759 8.85 5.39759H8.4C7.875 5.39759 7.35 5.62892 6.975 6.01446L6.825 6.09157H6.6C7.275 3.46988 9.675 1.54217 12.375 1.54217ZM5.625 7.63373H7.425L8.025 7.01687C8.175 6.93976 8.25 6.86265 8.4 6.86265H8.85C9 6.86265 9.15 6.93976 9.225 7.01687C9.6 7.40241 10.125 7.63373 10.65 7.63373H11.1C11.625 7.63373 12.15 7.40241 12.525 7.01687C12.6 6.93976 12.75 6.86265 12.9 6.86265H13.35C13.5 6.86265 13.65 6.93976 13.725 7.01687C14.1 7.40241 14.625 7.63373 15.15 7.63373H15.6C16.125 7.63373 16.65 7.40241 17.025 7.01687C17.1 6.93976 17.25 6.86265 17.325 6.86265H17.775C17.925 6.86265 18.075 6.93976 18.15 7.01687C18.525 7.40241 19.05 7.63373 19.575 7.63373H20.025C20.55 7.63373 21.075 7.40241 21.45 7.01687C21.525 6.93976 21.675 6.86265 21.825 6.86265H22.275C22.425 6.86265 22.575 6.93976 22.65 7.01687L23.25 7.63373H25.05C25.425 7.63373 25.8 7.94217 25.8 8.40482C25.8 8.86747 25.5 9.1759 25.05 9.1759H5.625C5.25 9.1759 4.875 8.86747 4.875 8.40482C4.875 7.94217 5.25 7.63373 5.625 7.63373ZM18.3 18.3518H12.45C9.675 18.3518 7.35 16.4241 6.6 13.7253H24.15C23.4 16.5012 21.075 18.3518 18.3 18.3518ZM25.05 12.2602H5.625C5.25 12.2602 4.875 11.9518 4.875 11.4892C4.875 11.0265 5.175 10.7181 5.625 10.7181H24.975C25.35 10.7181 25.725 11.0265 25.725 11.4892C25.725 11.9518 25.425 12.2602 25.05 12.2602Z" fill="black"/>
</svg>
