<svg width="62" height="52" viewBox="0 0 62 52" fill="none" xmlns="http://www.w3.org/2000/svg">
<path d="M61.0494 18.4238C65.0913 27.8153 55.8713 41.0148 40.4573 47.9208C24.9381 54.785 9.17411 52.7791 5.16433 43.4621C4.93978 42.9403 4.78829 42.3858 4.66887 41.9059C2.18968 32.7033 11.2512 20.5528 25.8616 14.0068C40.4721 7.46086 55.3719 8.87597 60.3669 17.0403C60.5273 17.413 60.8249 17.902 61.0494 18.4238Z" fill="#F7AD1A"/>
<path d="M60.262 16.9984C60.7219 19.2818 59.8525 21.7162 59.4269 24.5741C59.0012 27.4321 57.7987 30.1047 54.8766 31.4138C53.4156 32.0684 52.065 33.3848 51.2402 34.9102C49.9414 37.3591 47.4309 39.0174 44.7956 39.5757C42.4846 40.0776 40.1381 41.3068 38.2673 43.034C35.1689 45.7559 31.9403 46.7578 28.2394 46.4599C24.8949 46.1802 21.693 46.6368 18.9669 47.5915C14.9668 49.028 12.0695 48.3701 9.26116 45.8942C7.5505 44.349 5.69912 43.4892 4.59606 41.9385C2.11687 32.7359 11.1783 20.5854 25.7888 14.0395C40.3672 7.41895 55.267 8.83406 60.262 16.9984Z" fill="#EE8034"/>
<path d="M58.9964 13.6534C60.1192 16.2622 59.0218 18.9766 58.5374 22.3054C58.1117 25.1634 56.9092 27.8359 53.9871 29.1451C52.526 29.7997 51.1755 31.1161 50.3506 32.6414C48.9788 35.1231 46.5414 36.7486 43.9061 37.307C41.5951 37.8089 39.2485 39.0381 37.3778 40.7653C34.2794 43.4871 31.0508 44.4891 27.3499 44.1912C24.0054 43.9115 20.8035 44.3681 18.1094 45.3973C14.0363 46.8665 11.1069 46.1341 8.29859 43.6582C6.31351 41.8803 4.0416 40.8533 3.11133 38.6917C-0.353119 30.6418 9.34804 18.5604 24.7621 11.6544C40.1762 4.74839 55.532 5.60352 58.9964 13.6534Z" fill="#F7ADBB"/>
<path d="M57.1305 8.71046C61.1724 18.102 51.9203 31.227 36.5062 38.133C21.0922 45.039 5.32823 43.0331 1.31845 33.716C0.933507 32.8216 0.694672 31.8617 0.52889 30.8691C-0.890095 21.9027 7.98969 10.5449 21.8697 4.32626C35.8227 -1.92514 50.0275 -0.909948 55.6425 6.26534C56.2145 6.98705 56.7456 7.81602 57.1305 8.71046Z" fill="#EE8034"/>
<path d="M55.2951 6.06531C56.641 15.0644 47.7612 26.4222 33.8082 32.6736C19.9282 38.8923 5.72345 37.8771 0.140475 30.7763C-1.23754 21.7027 7.64225 10.3449 21.5222 4.12622C35.4752 -2.12518 49.68 -1.10998 55.2951 6.06531Z" fill="#F7AD1A"/>
<path d="M25.9094 8.65099C28.2473 11.2488 25.3595 17.6993 19.56 23.0538C13.7606 28.4083 7.18044 30.734 4.87458 28.2108C2.53664 25.613 5.4245 19.1625 11.224 13.808C16.9913 8.37896 23.6035 6.12775 25.9094 8.65099Z" fill="#FFC928"/>
<path d="M36.6969 13.0643C36.4047 13.1952 36.6292 13.7169 36.9214 13.586C37.2546 13.3478 37.0621 12.9006 36.6969 13.0643Z" fill="#EE8034"/>
<path d="M38.4391 7.39373C37.4894 7.81921 38.163 9.38448 39.1127 8.95899C40.0624 8.5335 39.3887 6.96824 38.4391 7.39373Z" fill="#EE8034"/>
<path d="M30.6852 20.5587C29.7355 20.9842 30.3771 22.4749 31.3268 22.0494C32.2765 21.6239 31.708 20.1005 30.6852 20.5587Z" fill="#EE8034"/>
<path d="M19.2699 28.2515L19.1969 28.2842C18.9047 28.4152 19.1292 28.9369 19.4214 28.806L19.4945 28.7733C19.7867 28.6423 19.5621 28.1206 19.2699 28.2515Z" fill="#EE8034"/>
<path d="M27.3408 16.6337C26.9523 16.541 26.7475 17.0774 27.0629 17.2028C27.241 17.2119 27.3462 17.2537 27.5653 17.1555C27.9306 16.9918 27.706 16.4701 27.3408 16.6337Z" fill="#EE8034"/>
<path d="M26.5898 4.96757C26.2976 5.09849 26.5221 5.62025 26.8143 5.48933C27.1066 5.35841 26.882 4.83665 26.5898 4.96757Z" fill="#EE8034"/>
<path d="M24.1682 28.902L23.9491 29.0002C22.9994 29.4257 23.641 30.9164 24.5906 30.4909L24.8098 30.3927C25.8325 29.9345 25.191 28.4438 24.1682 28.902Z" fill="#EE8034"/>
<path d="M4.63764 28.6726C4.17614 28.6126 3.80198 28.9581 3.74322 29.4289C3.66127 29.6435 3.68445 29.8998 3.78069 30.1234C3.97316 30.5706 4.46673 30.7051 4.83199 30.5415C5.19726 30.3778 5.36115 29.9488 5.27381 29.5434C5.43771 29.1143 4.99401 28.6907 4.63764 28.6726Z" fill="#EE8034"/>
<path d="M41.8755 21.8576C40.9259 22.2831 41.5995 23.8484 42.5492 23.4229C43.5398 22.8901 42.8983 21.3994 41.8755 21.8576Z" fill="#EE8034"/>
</svg>
