<svg width="103" height="114" viewBox="0 0 103 114" fill="none" xmlns="http://www.w3.org/2000/svg">
<path d="M73.7703 100.455C69.8746 112.437 50.4587 116.85 30.3926 110.326C10.2623 103.676 -2.84609 88.6891 1.01876 76.8016C1.2352 76.1359 1.54673 75.5011 1.82734 74.9614C7.03063 64.4555 25.4407 60.872 44.4607 67.0558C63.4807 73.2396 76.2635 86.9644 74.2627 98.6167C74.1081 99.0922 73.9868 99.7888 73.7703 100.455Z" fill="#F7AD1A"/>
<path d="M74.1985 98.4907C72.7622 100.968 69.9588 102.475 67.2244 104.741C64.4899 107.006 61.1802 108.454 57.3762 107.217C55.4742 106.599 53.1346 106.679 51.116 107.39C47.899 108.552 44.1947 107.979 41.2729 106.293C38.7005 104.826 35.5003 103.995 32.3382 104.019C27.2145 103.93 23.3749 102.156 20.156 98.7963C17.2556 95.7503 13.8868 93.4984 10.556 92.1C5.63936 90.0809 3.46658 87.0612 2.86316 82.4486C2.52585 79.6049 1.49661 77.2724 1.73224 74.9305C6.93553 64.4245 25.3456 60.8411 44.3656 67.0249C63.4165 73.1136 76.1993 86.8383 74.1985 98.4907Z" fill="#EE8034"/>
<path d="M75.7494 94.3682C74.6672 97.6967 71.4216 99.2703 68.2473 101.919C65.5128 104.184 62.2031 105.632 58.3991 104.395C56.4971 103.777 54.1575 103.857 52.1389 104.568C48.8268 105.699 45.2176 105.157 42.2958 103.471C39.7234 102.004 36.5232 101.173 33.3611 101.197C28.2374 101.108 24.3978 99.3342 21.1789 95.9744C18.2785 92.9284 14.9097 90.6764 11.548 89.3732C6.53625 87.3231 4.39438 84.2083 3.79097 79.5957C3.38714 76.3098 2.10117 73.4732 2.99781 70.7153C6.33704 60.4445 25.2891 57.4579 45.3552 63.9818C65.4213 70.5057 79.0886 84.0974 75.7494 94.3682Z" fill="#F7ADBB"/>
<path d="M78.0442 88.2794C74.1484 100.262 54.7635 104.58 34.6973 98.0561C14.6312 91.5322 1.52284 76.5449 5.38769 64.6574C5.75872 63.5162 6.31994 62.4368 6.97627 61.3884C12.9783 51.9833 30.5704 48.9752 48.6394 54.8497C66.8035 60.7552 79.2631 73.5337 78.6508 84.7963C78.596 85.9351 78.4152 87.1382 78.0442 88.2794Z" fill="#EE8034"/>
<path d="M78.4892 84.3231C72.3921 93.6973 54.8 96.7054 36.6359 90.7999C18.5668 84.9253 6.1073 72.1468 6.68863 60.9794C12.8167 51.5101 30.4088 48.502 48.4778 54.3766C66.6419 60.2821 79.1014 73.0605 78.4892 84.3231Z" fill="#F7AD1A"/>
<path d="M48.8835 62.1846C48.9472 66.5166 40.9724 70.0227 31.1696 70.0953C21.3669 70.168 13.3096 66.8123 13.2149 62.5755C13.1512 58.2435 21.126 54.7374 30.9288 54.6648C40.7625 54.497 48.7889 57.9477 48.8835 62.1846Z" fill="#FFC928"/>
<path d="M55.3682 75.2287C54.9878 75.1051 54.7713 75.7708 55.1517 75.8944C55.6581 75.9539 55.8437 75.3833 55.3682 75.2287Z" fill="#EE8034"/>
<path d="M61.6335 71.4823C60.3972 71.0804 59.7479 73.0775 60.9842 73.4794C62.2205 73.8814 62.8698 71.8843 61.6335 71.4823Z" fill="#EE8034"/>
<path d="M43.6179 77.0867C42.3816 76.6848 41.7632 78.5868 42.9995 78.9887C44.2359 79.3907 44.9493 77.5196 43.6179 77.0867Z" fill="#EE8034"/>
<path d="M26.6494 74.6194L26.5543 74.5884C26.1739 74.4648 25.9574 75.1305 26.3378 75.2542L26.4329 75.2851C26.8133 75.4087 27.0298 74.743 26.6494 74.6194Z" fill="#EE8034"/>
<path d="M43.6971 70.6982C43.4094 70.2892 42.7793 70.6101 42.9719 70.9882C43.1312 71.1451 43.1953 71.2711 43.4806 71.3639C43.9561 71.5185 44.1726 70.8528 43.6971 70.6982Z" fill="#EE8034"/>
<path d="M52.531 59.3747C52.1506 59.251 51.9342 59.9167 52.3146 60.0404C52.695 60.1641 52.9114 59.4984 52.531 59.3747Z" fill="#EE8034"/>
<path d="M30.7003 79.3013L30.415 79.2085C29.1787 78.8066 28.5603 80.7086 29.7966 81.1105L30.0819 81.2033C31.4133 81.6361 32.0317 79.7341 30.7003 79.3013Z" fill="#EE8034"/>
<path d="M12.6158 62.8013C12.233 62.3614 11.6006 62.3661 11.1607 62.7488C10.9086 62.8772 10.7208 63.1315 10.628 63.4168C10.4425 63.9874 10.7943 64.5224 11.2698 64.677C11.7453 64.8316 12.2494 64.5749 12.4991 64.1303C13.0032 63.8736 12.9343 63.1151 12.6158 62.8013Z" fill="#EE8034"/>
<path d="M53.0249 87.6109C51.7886 87.209 51.1393 89.2061 52.3756 89.608C53.7379 89.9458 54.3563 88.0438 53.0249 87.6109Z" fill="#EE8034"/>
<path d="M102.623 11.0865C102.367 10.7031 101.943 10.4835 101.527 10.2903C100.057 9.58964 98.5332 8.94803 96.9124 8.70788C95.3001 8.47239 93.5734 8.65079 92.1931 9.51624C93.7017 6.70495 95.5048 4.06516 97.5623 1.63027C97.406 1.48979 97.2411 1.34464 97.0848 1.20416C95.1823 2.5605 93.7698 4.48271 92.6022 6.505C91.4346 8.52729 90.4768 10.6528 89.3006 12.6704C90.3129 8.59212 89.7609 4.14943 87.7811 0.435547C87.3097 0.58867 86.843 0.73325 86.3716 0.886373C87.9276 2.24308 88.379 4.3052 88.6478 6.3565C88.9081 8.40315 89.0378 10.4452 88.5546 12.4525L88.0788 14.8736C88.5475 13.0356 89.9315 12.0615 91.6684 11.213C93.6576 10.2472 95.0277 10.0518 97.0911 10.0899C98.5275 10.1189 101.551 11.2445 102.494 12.3227C102.882 12.0578 102.885 11.4615 102.623 11.0865Z" fill="#E08CB8"/>
<path d="M88.0838 14.865C88.049 14.99 88.0228 15.1197 88.0051 15.2541L88.0838 14.865Z" fill="#E08CB8"/>
<path d="M90.2363 10.422L37.6657 52.5906C37.6657 52.5906 39.1476 58.3592 44.4949 63.3197C48.7364 67.2572 56.8527 71.754 56.8527 71.754C56.8527 71.754 65.0341 76.1311 70.6431 77.5571C77.7115 79.3569 83.3609 77.4712 83.3609 77.4712L90.2363 10.422Z" fill="#46A5AA"/>
<path d="M86.3406 25.8224C86.9729 26.4325 87.6836 27.041 88.4485 27.4685L88.8811 23.274C87.5095 22.2503 86.0837 21.2857 84.8394 20.1098C83.8229 19.1465 82.9422 18.0357 82.2261 16.8262L80.004 18.6066C81.9056 21.1815 84.0347 23.6033 86.3406 25.8224Z" fill="#E08CB8"/>
<path d="M85.1262 55.2745C85.2684 55.3187 85.4238 55.359 85.5839 55.3908L86.0233 51.1225C82.6843 48.2966 78.8914 45.9988 75.6345 43.0626C71.5417 39.361 68.3768 34.6475 66.4785 29.4606L61.9 33.1255C65.4922 37.1968 68.4704 41.7644 72.0269 45.8606C75.5958 49.9746 79.9147 53.6884 85.1262 55.2745Z" fill="#E08CB8"/>
<path d="M84.7188 63.7798C84.54 63.6603 84.3566 63.5493 84.1777 63.4298C78.2056 59.6575 72.2 55.8449 66.9625 51.1103C62.6838 47.2411 58.9031 42.7017 56.412 37.5244L51.0985 41.7858C58.0422 54.1167 69.2651 64.0041 82.393 69.3137C82.9301 69.5285 83.5114 69.7232 84.1043 69.8356L84.7188 63.7798Z" fill="#E08CB8"/>
<path d="M76.738 22.997C76.5123 22.5972 76.3005 22.1718 76.0933 21.7378L72.5362 24.5855C75.5208 29.223 78.8749 33.6298 82.5487 37.7344C83.857 39.1999 85.2485 40.6553 87.009 41.5143L87.5353 36.3739C83.2194 32.5731 79.5435 28.0243 76.738 22.997Z" fill="#E08CB8"/>
<path d="M51.3335 64.3194C53.2632 66.9649 55.2006 69.6368 57.3949 72.0609C59.3677 73.0797 65.8885 76.3533 70.5906 77.5513C71.7477 77.8491 72.8651 78.0366 73.9194 78.1566C73.7044 77.6963 73.3792 77.2755 73.0486 76.8851C70.2458 73.5426 66.646 70.9513 63.5917 67.8263C57.7989 61.8923 54.1023 54.1647 48.3552 48.167C47.607 47.383 46.8145 46.6193 46.1338 45.7724L40.9414 49.9337C41.5577 50.8784 42.223 51.7944 42.8758 52.6925C45.6948 56.5754 48.5184 60.4497 51.3335 64.3194Z" fill="#E08CB8"/>
<path d="M52.3252 47.8586C51.1316 48.87 49.8875 49.9536 49.3446 51.4189C48.8017 52.8843 49.2305 54.8455 50.6769 55.4669C51.6772 55.8897 52.8693 55.5531 53.7324 54.9045C54.5955 54.2559 55.2199 53.3332 55.8302 52.4362C60.2781 45.9979 65.666 40.2153 71.7641 35.3068C72.8081 34.4686 76.1459 30.7817 72.7077 30.9475C70.7051 31.0421 67.6788 34.788 66.1934 36.0502C61.5748 39.9923 56.9477 43.9298 52.3252 47.8586Z" fill="white"/>
<path d="M75.2562 28.3033C75.1314 28.5123 75.0058 28.7429 75.0278 28.9875C75.0594 29.4588 75.6028 29.7436 76.065 29.7294C77.0026 29.6973 77.718 28.9128 78.3223 28.1897C79.1268 27.2212 83.5841 22.9034 79.9778 23.3984C77.834 23.6709 76.2021 26.6476 75.2562 28.3033Z" fill="white"/>
<path d="M100.558 18.7885C101.135 16.3231 100.242 13.5662 98.3171 11.9091C96.3925 10.2521 93.5385 9.77241 91.1803 10.7034C92.3359 9.02897 93.8616 7.61142 95.613 6.59366C96.5555 6.04361 97.6425 5.59445 98.7257 5.76334C98.6622 5.3301 98.5856 4.90075 98.5222 4.46751C94.4562 4.52403 90.5626 7.27712 89.1547 11.0846C89.3328 9.21014 88.2516 7.34779 86.7029 6.28303C85.1502 5.20506 83.1984 4.84002 81.3138 4.92142C80.9603 4.93939 80.589 4.9698 80.3073 5.18187C79.7616 5.59358 79.8294 6.40573 79.9412 7.07577C81.7735 6.11312 84.1626 6.30641 85.8272 7.54507C87.4919 8.78372 88.3513 11.0126 87.9629 13.0494L88.6232 14.3614C89.6575 12.6653 91.7914 11.8003 93.7556 12.0613C95.7283 12.327 97.4738 13.6207 98.5175 15.3076C98.8639 15.8727 99.1513 16.5055 99.159 17.1631C99.1621 17.8293 98.8288 18.5228 98.2224 18.8018C99.0204 18.904 99.7957 18.9053 100.558 18.7885Z" fill="#46A5AA"/>
</svg>
