<svg width="62" height="52" viewBox="0 0 62 52" fill="none" xmlns="http://www.w3.org/2000/svg">
<path d="M60.9878 18.0657C65.1523 27.3634 56.0879 40.625 40.7433 47.7013C25.2929 54.7373 9.48593 52.9454 5.35449 43.7215C5.12313 43.2049 4.96449 42.6549 4.83891 42.1786C2.24123 33.0486 11.1602 20.8335 25.7048 14.1261C40.2495 7.41872 55.1838 8.63368 60.2871 16.6972C60.4524 17.0661 60.7565 17.5491 60.9878 18.0657Z" fill="#78CCCA"/>
<path d="M60.1814 16.6569C60.6705 18.9243 59.8307 21.3593 59.4405 24.2102C59.0503 27.0612 57.88 29.7377 54.9711 31.0792C53.5166 31.7499 52.1811 33.0781 51.3745 34.6075C50.1051 37.0626 47.6126 38.7462 44.9814 39.3364C42.6741 39.8662 40.3403 41.1205 38.4891 42.8646C35.4215 45.6148 32.2018 46.6543 28.493 46.4059C25.1413 46.171 21.9415 46.6672 19.2243 47.6532C15.2377 49.1355 12.3289 48.5182 9.48628 46.0897C7.75426 44.5735 5.88998 43.7416 4.76618 42.2121C2.16851 33.0821 11.0874 20.867 25.6321 14.1596C40.1437 7.37844 55.078 8.5934 60.1814 16.6569Z" fill="#5EC4BA"/>
<path d="M58.8725 13.343C60.0293 15.9257 58.9648 18.6425 58.5217 21.963C58.1315 24.814 56.9612 27.4905 54.0523 28.8319C52.5978 29.5027 51.2623 30.8308 50.4557 32.3602C49.1135 34.8489 46.6938 36.499 44.0626 37.0892C41.7553 37.619 39.4215 38.8733 37.5703 40.6173C34.5026 43.3675 31.283 44.4071 27.5742 44.1587C24.2224 43.9237 21.0226 44.42 18.3385 45.4797C14.2792 46.9956 11.3374 46.3045 8.49473 43.876C6.48506 42.1317 4.19768 41.1388 3.23919 38.9988C-0.330375 31.0293 9.22983 18.8746 24.5745 11.7983C39.9918 4.68849 55.303 5.37353 58.8725 13.343Z" fill="#EB5660"/>
<path d="M56.625 8.32518C60.7895 17.6229 51.692 30.8107 36.3474 37.887C20.9301 44.9969 5.12313 43.2049 0.991689 33.981C0.595071 33.0955 0.3439 32.1429 0.165452 31.1568C-1.32818 22.141 7.41883 10.7174 21.2363 4.34537C35.1264 -2.0602 49.36 -1.23434 55.0716 5.83637C55.6533 6.54746 56.1954 7.36589 56.625 8.32518Z" fill="#5EC4BA"/>
<path d="M55.369 6.50048C56.8627 15.5163 48.1157 26.9399 34.2255 33.3455C20.4081 39.7175 6.17452 38.8916 0.462927 31.8209C-1.03071 22.8051 7.7163 11.3815 21.5337 5.00948C35.4239 -1.39609 49.6574 -0.570232 55.369 6.50048Z" fill="#78CCCA"/>
<path d="M25.6853 8.7931C28.0585 11.349 25.2485 17.8089 19.5098 23.2153C13.8042 28.6956 7.21284 31.023 4.87265 28.5409C2.49942 25.9849 5.30945 19.5251 11.0481 14.1186C16.7537 8.63834 23.3451 6.31095 25.6853 8.7931Z" fill="#9BD7D5"/>
<path d="M36.5404 13.0467C36.2495 13.1808 36.4809 13.6974 36.7718 13.5632C37.1024 13.3217 36.904 12.879 36.5404 13.0467Z" fill="#5EC4BA"/>
<path d="M38.2133 7.37835C37.2679 7.81434 37.9289 9.29017 38.8743 8.85418C39.8197 8.4182 39.1587 6.94237 38.2133 7.37835Z" fill="#5EC4BA"/>
<path d="M30.6165 20.5863C29.6711 21.0223 30.3652 22.5719 31.3106 22.1359C32.3287 21.6664 31.6346 20.1168 30.6165 20.5863Z" fill="#5EC4BA"/>
<path d="M19.2848 28.3941L19.212 28.4276C18.9211 28.5617 19.1525 29.0783 19.4434 28.9441L19.5161 28.9106C19.807 28.7765 19.5757 28.2599 19.2848 28.3941Z" fill="#5EC4BA"/>
<path d="M27.2184 16.7224L27.1457 16.7559C26.8283 16.6352 26.63 17.1718 26.9473 17.2926C27.1258 17.2993 27.2316 17.3395 27.4498 17.2389C27.8134 17.0712 27.582 16.5547 27.2184 16.7224Z" fill="#5EC4BA"/>
<path d="M26.3201 5.11708C26.0292 5.25122 26.2606 5.76776 26.5515 5.63362C26.8424 5.49947 26.611 4.98293 26.3201 5.11708Z" fill="#7AC143"/>
<path d="M24.1968 28.9779L23.9786 29.0785C23.0332 29.5145 23.7273 31.0641 24.6727 30.6281L24.8908 30.5275C25.8759 29.9842 25.2149 28.5084 24.1968 28.9779Z" fill="#5EC4BA"/>
<path d="M4.64124 29.0037C4.17847 28.95 3.80824 29.2988 3.75532 29.7684C3.67598 29.983 3.70241 30.238 3.80157 30.4593C3.99988 30.9021 4.4957 31.0296 4.85931 30.8619C5.22293 30.6942 5.38162 30.2649 5.28908 29.8624C5.44777 29.4331 4.99824 29.0171 4.64124 29.0037Z" fill="#5EC4BA"/>
<path d="M41.8354 21.734C40.89 22.17 41.551 23.6459 42.4964 23.2099C43.4419 22.7739 42.8535 21.2645 41.8354 21.734Z" fill="#5EC4BA"/>
</svg>
