<svg width="62" height="52" viewBox="0 0 62 52" fill="none" xmlns="http://www.w3.org/2000/svg">
<path d="M58.7314 40.1159C55.9955 50.4241 40.7456 54.8711 24.6615 50.0615C8.52285 45.1474 -2.29732 32.9048 0.416933 22.6785C0.568932 22.1058 0.797158 21.5559 1.00367 21.0878C4.81838 11.9853 19.2958 8.27868 34.5414 12.8375C49.787 17.3963 60.3124 28.5793 59.0678 38.5387C58.9592 38.9478 58.8834 39.5433 58.7314 40.1159Z" fill="#F281A3"/>
<path d="M59.0132 38.4342C57.9479 40.5881 55.7714 41.9683 53.6717 43.9895C51.5719 46.0108 48.9926 47.3588 45.9435 46.447C44.4189 45.9912 42.5682 46.1442 40.99 46.8202C38.4759 47.9228 35.5252 47.5703 33.1616 46.2454C31.0813 45.0935 28.5223 44.5049 26.0184 44.6392C21.9575 44.7495 18.8645 43.3831 16.2168 40.6487C13.8307 38.1691 11.0966 36.3802 8.41755 35.3142C4.46431 33.7788 2.65518 31.2952 2.04261 27.4032C1.69244 25.0026 0.809126 23.0607 0.927409 21.0651C4.74212 11.9625 19.2195 8.25592 34.4651 12.8147C49.7325 17.2917 60.2579 28.4748 59.0132 38.4342Z" fill="#EE5D7C"/>
<path d="M60.1211 34.88C59.3611 37.7434 56.8364 39.196 54.3993 41.558C52.2996 43.5792 49.7203 44.9272 46.6712 44.0155C45.1466 43.5596 43.2959 43.7126 41.7177 44.3886C39.1273 45.4684 36.2528 45.1387 33.8893 43.8138C31.809 42.6619 29.25 42.0734 26.746 42.2076C22.6852 42.3179 19.5921 40.9515 16.9445 38.2171C14.5583 35.7375 11.8243 33.9486 9.12352 32.9644C5.09406 31.4063 3.30664 28.8408 2.69407 24.9488C2.2783 22.1754 1.17693 19.8151 1.80664 17.4426C4.15175 8.60696 19.0759 5.38719 35.16 10.1967C51.2441 15.0063 62.4663 26.0444 60.1211 34.88Z" fill="#AAD7D4"/>
<path d="M61.5977 29.3169C58.8617 39.6251 43.6336 43.9902 27.5495 39.1807C11.3891 34.3483 0.568929 22.1058 3.28319 11.8794C3.54376 10.8977 3.95678 9.96155 4.44603 9.0482C9.02348 0.791822 22.8698 -2.39703 37.3531 1.93385C51.8365 6.26472 62.1545 16.6793 61.9982 26.2577C61.9881 27.226 61.88 28.2534 61.5977 29.3169Z" fill="#EE5D7C"/>
<path d="M61.9982 26.2577C57.4425 34.4323 43.5962 37.6211 29.0366 33.2675C14.4771 28.9138 4.31153 18.5448 4.44603 9.0482C9.02348 0.791822 22.8698 -2.39703 37.3531 1.93385C51.8365 6.26472 62.1545 16.6793 61.9982 26.2577Z" fill="#F281A3"/>
<path d="M37.9024 8.54431C38.0793 12.2177 31.865 15.4811 24.1027 15.8974C16.3403 16.3137 9.8605 13.7579 9.66187 10.1664C9.48495 6.493 15.6992 3.22958 23.4615 2.81328C31.2456 2.31518 37.7037 4.95275 37.9024 8.54431Z" fill="#F2AEBD"/>
<path d="M43.4194 19.3777C43.1145 19.2865 42.9625 19.8592 43.2674 19.9503C43.6703 19.9825 43.8006 19.4916 43.4194 19.3777Z" fill="#EE3686"/>
<path d="M48.2726 15.9722C47.2817 15.6758 46.8474 17.3121 47.8384 17.6084C48.8293 17.9047 49.2636 16.2685 48.2726 15.9722Z" fill="#EE3686"/>
<path d="M34.1667 21.3792C33.1757 21.0829 32.7414 22.7191 33.7324 23.0155C34.7779 23.4164 35.2339 21.6983 34.1667 21.3792Z" fill="#EE3686"/>
<path d="M20.6544 19.8996L20.5782 19.8768C20.2732 19.7856 20.1212 20.3583 20.4262 20.4495L20.5024 20.4722C20.8073 20.5634 20.9593 19.9908 20.6544 19.8996Z" fill="#EE3686"/>
<path d="M34.0429 15.9557C33.8031 15.6191 33.3134 15.9142 33.4769 16.228C33.6077 16.3554 33.6622 16.46 33.8909 16.5284C34.272 16.6423 34.424 16.0697 34.0429 15.9557Z" fill="#EE3686"/>
<path d="M40.7094 6.02811C40.4045 5.93693 40.2525 6.50961 40.5574 6.60078C40.8624 6.69196 41.0144 6.11928 40.7094 6.02811Z" fill="#EE3686"/>
<path d="M23.9996 23.7256L23.7709 23.6572C22.78 23.3609 22.324 25.0789 23.3149 25.3753L23.5436 25.4437C24.6325 25.681 25.0668 24.0447 23.9996 23.7256Z" fill="#EE3686"/>
<path d="M9.19388 10.3796C8.87789 10.0202 8.37709 10.0471 8.03984 10.3878C7.84395 10.5058 7.70258 10.7284 7.63744 10.9739C7.50715 11.4647 7.80144 11.9059 8.18258 12.0199C8.56372 12.1339 8.95549 11.8978 9.14029 11.5116C9.53206 11.2755 9.45537 10.6344 9.19388 10.3796Z" fill="#EE3686"/>
<path d="M41.9248 29.9687C40.9338 29.6724 40.4995 31.3086 41.4905 31.605C42.5577 31.9241 42.992 30.2879 41.9248 29.9687Z" fill="#EE3686"/>
</svg>
