<svg width="123" height="123" viewBox="0 0 123 123" fill="none" xmlns="http://www.w3.org/2000/svg">
<path d="M105.071 105.007C81.0659 128.998 42.1821 128.998 18.078 105.007C-6.02601 80.9178 -6.02601 42.0574 18.078 18.0671C42.0829 -6.02236 80.9667 -6.02236 105.071 18.0671C128.976 42.0574 128.976 80.9178 105.071 105.007Z" fill="#B3D9F3"/>
<path d="M78.6857 39.6781L78.0905 66.8407C78.0905 66.8407 74.7179 71.0043 61.426 71.0043C48.3324 71.0043 46.2494 66.2459 46.2494 66.2459L45.7534 41.2643C46.4478 41.2643 45.1582 41.3634 45.7534 41.2643C38.7107 41.3634 31.7671 35.7128 31.7671 28.6743C31.7671 21.6358 37.5203 15.8861 44.5631 15.8861C46.3486 15.8861 48.1341 16.2826 49.7211 16.9765C51.8042 12.8129 56.2679 9.93805 61.2276 9.93805C65.9889 9.93805 69.8574 12.6147 72.1389 16.4809C74.222 14.8947 76.801 14.1017 79.6776 14.1017C86.7203 14.1017 92.4736 19.7523 92.4736 26.8899C92.5728 33.9284 85.8276 39.6781 78.6857 39.6781C78.2889 39.6781 79.2808 39.6781 78.6857 39.6781Z" fill="white"/>
<path d="M27.502 56.2335C27.502 55.1431 27.4028 54.2509 27.3036 53.7552C27.1052 52.5656 26.5101 51.4751 25.5181 50.5829C24.5262 49.6907 23.4351 49.2942 22.0463 49.2942C20.6576 49.2942 19.3681 49.7898 18.3762 50.7812C17.2851 49.7898 16.0947 49.2942 14.706 49.2942C13.4165 49.2942 12.127 49.7898 11.2343 50.5829C10.3415 51.376 9.64715 52.3673 9.34957 53.7552C9.25038 54.35 9.15119 55.1431 9.15119 56.2335V64.759C9.15119 65.2547 9.54796 65.4529 9.84554 65.4529C10.3415 65.4529 10.5399 65.0564 10.5399 64.759V55.9361C10.5399 54.35 10.8375 53.0613 11.5318 52.0699C12.2262 50.9794 13.3173 50.4838 14.8052 50.4838C15.8963 50.4838 16.7891 50.8803 17.5826 51.6734C16.8883 52.863 16.5907 54.1517 16.5907 55.9361V64.6599C16.5907 65.0564 16.8883 65.3538 17.2851 65.3538C17.781 65.3538 17.9794 64.9573 17.9794 64.6599V55.837C17.9794 54.5483 18.1778 53.5569 18.4754 52.863C18.773 53.6561 18.9713 54.8457 18.9713 56.2335V64.759C18.9713 65.1556 19.2689 65.4529 19.6657 65.4529C20.1617 65.4529 20.3601 65.0564 20.3601 64.759V55.6387C20.3601 53.8543 20.0625 52.5656 19.3681 51.5742C20.0625 50.8803 20.9552 50.4838 22.0463 50.4838C23.0383 50.4838 23.931 50.7812 24.6254 51.376C25.3197 51.8716 25.8157 52.6647 26.1133 53.6561C26.3117 54.2509 26.3117 54.9448 26.3117 55.9361V64.759C26.3117 65.1556 26.6092 65.4529 27.006 65.4529C27.502 65.4529 27.7004 65.0564 27.7004 64.759L27.6012 64.2634V56.2335H27.502Z" fill="black"/>
<path d="M43.5713 51.7725C41.9842 50.1864 40.0004 49.3933 37.7189 49.3933C35.4375 49.3933 33.4536 50.1864 31.8665 51.7725C30.2794 53.3587 29.4859 55.3413 29.4859 57.6214C29.4859 59.9015 30.2794 61.8841 31.9657 63.4703C33.652 65.0564 35.6359 65.8495 37.9173 65.8495C39.6036 65.8495 41.1907 65.3538 42.4802 64.4616V64.6599C42.4802 65.3538 42.877 65.5521 43.1746 65.5521C43.4722 65.5521 43.8689 65.2547 43.8689 64.6599V63.3711C45.456 61.6859 46.2496 59.8023 46.2496 57.6214C46.0512 55.2422 45.1584 53.2595 43.5713 51.7725ZM42.2818 57.7205V62.8755C40.8931 64.0651 39.4052 64.6599 37.7189 64.6599C35.8342 64.6599 34.148 63.9659 32.8584 62.5781C31.4697 61.2893 30.8746 59.7032 30.8746 57.7205C30.8746 55.7379 31.5689 54.1517 32.9576 52.7639C34.3463 51.376 35.9334 50.682 37.9173 50.682C39.802 50.682 41.4883 51.376 42.7778 52.7639C44.0673 54.1517 44.8609 55.7379 44.8609 57.6214C44.8609 59.0093 44.4641 60.1989 43.7697 61.2893V57.7205C43.5713 56.7292 42.2818 56.7292 42.2818 57.7205Z" fill="black"/>
<path d="M54.9786 65.8495C56.8633 65.8495 58.6488 65.2547 60.2359 63.9659C60.6326 63.6685 60.9302 63.4703 61.1286 63.1729H61.2278V63.0737C61.327 62.9746 61.327 62.8755 61.327 62.6772C61.327 62.3798 61.1286 62.0824 60.7318 62.0824H60.3351L60.2359 62.2807V62.4789C59.5415 63.0737 58.748 63.6685 57.9544 64.0651C57.0617 64.4616 56.0697 64.759 55.177 64.759C53.1931 64.759 51.606 64.0651 50.3165 62.6772C48.9278 61.2893 48.2334 59.7032 48.2334 57.7205C48.2334 55.837 48.9278 54.1517 50.3165 52.863C51.606 51.4751 53.1931 50.8803 55.177 50.8803C57.0617 50.8803 58.748 51.5742 60.1367 52.9621L60.4342 53.1604H60.831L60.9302 53.0613C61.1286 52.9621 61.2278 52.7638 61.2278 52.5656V52.3673L61.1286 52.2682C61.1286 52.2682 61.1286 52.169 61.0294 52.169C60.9302 52.0699 60.9302 51.9708 60.831 51.9708C59.3431 50.3846 57.3592 49.4924 54.9786 49.4924C52.6972 49.4924 50.7133 50.2855 49.1262 51.8716C47.5391 53.4578 46.7455 55.4405 46.7455 57.7205C46.7455 59.9015 47.5391 61.8841 49.1262 63.5694C50.8125 65.0564 52.7963 65.8495 54.9786 65.8495Z" fill="black"/>
<path d="M75.4125 51.7725C73.8254 50.1864 71.8415 49.3933 69.5601 49.3933C67.2786 49.3933 65.2947 50.1864 63.7076 51.7725C62.1205 53.3587 61.327 55.3413 61.327 57.6214C61.327 59.9015 62.1205 61.8841 63.7076 63.4703C65.3939 65.0564 67.3778 65.8495 69.6592 65.8495C71.3455 65.8495 72.9326 65.3538 74.2222 64.4616V64.6599C74.2222 65.3538 74.6189 65.5521 74.9165 65.5521C75.2141 65.5521 75.6109 65.2547 75.6109 64.6599V63.3711C77.198 61.6859 77.9915 59.8023 77.9915 57.6214C77.8923 55.1431 77.0988 53.2595 75.4125 51.7725ZM74.123 57.7205V62.8755C72.7342 64.0651 71.2463 64.6599 69.5601 64.6599C67.6754 64.6599 65.9891 63.9659 64.6004 62.5781C63.2117 61.2893 62.6165 59.7032 62.6165 57.7205C62.6165 55.7379 63.3109 54.1517 64.6996 52.7639C66.0883 51.376 67.6754 50.682 69.6592 50.682C71.5439 50.682 73.2302 51.376 74.5197 52.7639C75.9084 54.1517 76.6028 55.7379 76.6028 57.6214C76.6028 59.0093 76.206 60.298 75.5117 61.3885V57.8197C75.4125 56.7292 74.123 56.7292 74.123 57.7205Z" fill="black"/>
<path d="M79.9754 65.5521C80.4713 65.5521 80.6697 65.1555 80.6697 64.8581V58.4145C80.6697 56.7292 80.7689 55.7379 80.9673 55.0439C81.2649 53.9535 81.8601 53.0613 82.6536 52.3673C83.4472 51.6734 84.3399 51.2768 85.3318 50.9794C85.8278 50.9794 86.0262 50.5829 86.0262 50.2855C86.0262 49.7898 85.7286 49.6907 85.5302 49.5916H85.3318C84.8359 49.5916 84.2407 49.7898 83.5463 50.1864C82.356 50.7812 81.3641 51.5742 80.6697 52.6647C80.6697 52.0699 80.6697 51.2768 80.6697 50.3846C80.6697 49.3933 79.281 49.3933 79.281 50.3846V64.8581C79.281 65.2547 79.5786 65.5521 79.9754 65.5521Z" fill="black"/>
<path d="M100.409 51.7725C98.8222 50.1864 96.8383 49.3933 94.5568 49.3933C92.2754 49.3933 90.2915 50.1864 88.7044 51.7725C87.1173 53.3587 86.3238 55.3413 86.3238 57.6214C86.3238 59.9015 87.1173 61.8841 88.7044 63.4703C90.3907 65.0564 92.3746 65.8495 94.656 65.8495C96.9375 65.8495 98.9213 65.0564 100.508 63.3711C102.096 61.6859 102.889 59.7032 102.889 57.4231C102.889 55.2422 102.096 53.2595 100.409 51.7725ZM94.5568 50.682C96.4415 50.682 98.1278 51.376 99.4173 52.7639C100.806 54.1517 101.5 55.7379 101.5 57.6214C101.5 59.6041 100.806 61.2893 99.3181 62.5781C98.0286 63.9659 96.4415 64.5607 94.4576 64.5607C92.573 64.5607 90.8867 63.8668 89.5972 62.4789C88.2084 61.0911 87.5141 59.5049 87.5141 57.6214C87.5141 55.6387 88.2084 54.0526 89.5972 52.6647C90.8867 51.2768 92.573 50.682 94.5568 50.682Z" fill="black"/>
<path d="M115.784 53.5569C115.586 52.3673 114.991 51.376 113.9 50.4838C112.908 49.6907 111.717 49.195 110.428 49.195C109.436 49.195 108.543 49.3933 107.75 49.889C107.154 50.2855 106.559 50.682 106.162 51.2768V50.2855C106.162 49.2942 104.774 49.2942 104.774 50.2855V64.759C104.774 65.2547 105.171 65.4529 105.468 65.4529C105.964 65.4529 106.162 65.0564 106.162 64.759V56.5309C106.162 55.6387 106.162 54.8457 106.262 54.4491C106.46 53.2595 106.857 52.3673 107.551 51.6734C108.345 50.9794 109.337 50.5829 110.329 50.5829C111.122 50.5829 111.916 50.7812 112.511 51.1777C113.404 51.6734 113.999 52.4665 114.197 53.4578C114.396 54.0526 114.396 55.1431 114.396 56.5309V64.759C114.396 65.1556 114.693 65.4529 115.09 65.4529C115.288 65.4529 115.487 65.3538 115.586 65.2547H115.883V55.837C115.983 54.9448 115.883 54.1517 115.784 53.5569Z" fill="black"/>
<path d="M40.1988 84.5857C39.5044 84.5857 39.4052 84.9823 39.4052 85.2797C39.4052 85.7753 39.802 85.9736 40.0996 85.9736C40.8931 85.9736 41.4883 86.1719 42.1826 86.5684C43.4722 87.2623 44.1665 88.4519 44.1665 89.9389C44.1665 91.0294 43.7697 91.9216 42.9762 92.7147C42.1826 93.5078 41.2899 93.9043 40.1988 93.9043C38.6117 93.9043 37.5205 93.2103 36.6278 91.8225C36.3302 91.4259 36.1318 90.8311 36.1318 90.1372C36.1318 89.6415 35.8343 89.3441 35.4375 89.3441C34.9415 89.3441 34.7431 89.7407 34.7431 90.0381C34.7431 91.4259 35.3383 92.7147 36.4294 93.6069C37.4213 94.5982 38.7109 95.0939 40.0996 95.0939C41.5875 95.0939 42.877 94.5982 43.8689 93.5078C44.8609 92.5164 45.456 91.2277 45.456 89.7407C45.456 88.2537 44.9601 87.0641 43.9681 86.0727C42.9762 85.1805 41.6867 84.5857 40.1988 84.5857Z" fill="black"/>
<path d="M39.9012 80.4221C41.1907 80.4221 42.0834 80.9178 42.6786 82.0083C42.7778 82.2065 42.9762 82.6031 43.0754 82.9996C43.0754 83.4953 43.373 83.7927 43.7697 83.7927C44.1665 83.7927 44.4641 83.4953 44.4641 83.0987C44.4641 81.9091 43.8689 80.9178 42.877 80.323C41.9842 79.5299 40.9923 79.1334 39.802 79.1334C38.6117 79.1334 37.5205 79.5299 36.6278 80.4221C35.8343 81.4135 35.3383 82.4048 35.3383 83.5944C35.3383 84.784 35.7351 85.8745 36.6278 86.7667C37.4213 87.6589 38.5125 88.1545 39.7028 88.1545C40.1988 88.1545 40.4963 87.8571 40.4963 87.4606C40.4963 87.0641 40.1988 86.7667 39.802 86.7667C38.9092 86.7667 38.2149 86.4693 37.6197 85.8745C37.0246 85.2797 36.727 84.4866 36.727 83.5944C36.727 82.7022 37.0246 81.9091 37.6197 81.3143C38.4133 80.7195 39.1076 80.4221 39.9012 80.4221Z" fill="black"/>
<path d="M57.4584 85.7753C57.4584 84.6849 57.3592 83.8918 57.2601 83.3961C56.9625 82.1074 56.3673 81.1161 55.4746 80.4221C54.4826 79.5299 53.4907 79.1334 52.2012 79.1334C51.3084 79.1334 50.4157 79.3316 49.6222 79.8273C48.9278 80.1247 48.4318 80.6204 48.0351 81.1161V75.168C48.0351 74.1767 46.6463 74.1767 46.6463 75.168V94.1026C46.6463 94.5982 47.0431 94.7965 47.3407 94.7965C47.8367 94.7965 48.0351 94.4 48.0351 94.1026V86.1719C48.0351 85.5771 48.0351 85.0814 48.1342 84.6849C48.1342 84.3875 48.1342 84.1892 48.1342 84.0901C48.3326 82.9996 48.7294 82.1074 49.4238 81.4135C50.2173 80.7195 51.0109 80.4221 52.2012 80.4221C52.9947 80.4221 53.7883 80.6204 54.3834 81.0169C55.2762 81.6117 55.7722 82.3057 55.9705 83.1979C56.1689 83.7927 56.1689 84.784 56.1689 86.1719V94.1026C56.1689 94.4991 56.4665 94.7965 56.8633 94.7965C57.3592 94.7965 57.5576 94.4 57.5576 94.1026L57.4584 93.6069V85.7753Z" fill="black"/>
<path d="M72.7343 81.4135C71.1472 79.8273 69.2625 79.0342 67.0802 79.0342C64.898 79.0342 62.9141 79.8273 61.4262 81.4135C59.8391 82.9996 59.0455 84.8831 59.0455 87.0641C59.0455 89.245 59.8391 91.2277 61.4262 92.7147C63.0133 94.3008 64.898 95.0939 67.1794 95.0939C69.4609 95.0939 71.3455 94.3008 72.8334 92.7147C74.4205 91.1285 75.2141 89.245 75.2141 86.9649C75.2141 84.6849 74.4205 82.9005 72.7343 81.4135ZM62.3189 91.8225C61.0294 90.5337 60.3351 88.9476 60.3351 87.0641C60.3351 85.1805 61.0294 83.5944 62.3189 82.2065C63.6084 80.9178 65.1955 80.2239 67.1794 80.2239C68.9649 80.2239 70.6512 80.9178 71.9407 82.2065C73.2302 83.4953 73.9246 85.0814 73.9246 86.9649C73.9246 88.8485 73.2302 90.5337 71.8415 91.8225C70.552 93.1112 68.9649 93.8052 67.0802 93.8052C65.2947 93.8052 63.6084 93.1112 62.3189 91.8225Z" fill="black"/>
<path d="M84.5383 79.0342C82.2568 79.0342 80.3721 79.8273 78.8842 81.4135C77.3963 82.9996 76.5036 84.8831 76.5036 87.0641C76.5036 89.245 77.2972 91.1285 78.7851 92.7147V99.1584C78.7851 99.5549 79.0826 99.8523 79.4794 99.8523C79.9754 99.8523 80.1738 99.4558 80.1738 99.1584V93.9043C81.4633 94.7965 82.9512 95.193 84.5383 95.193C86.8197 95.193 88.8036 94.4 90.2915 92.9129C91.8786 91.3268 92.7713 89.5424 92.7713 87.2623C92.7713 84.9823 91.8786 83.0987 90.2915 81.5126C88.7044 79.8273 86.8197 79.0342 84.5383 79.0342ZM79.4794 86.3701C79.1818 86.3701 78.7851 86.6675 78.7851 87.1632V90.5337C78.1899 89.5424 77.8923 88.3528 77.8923 87.0641C77.8923 85.2797 78.5867 83.5944 79.8762 82.3057C81.2649 80.9178 82.852 80.323 84.7367 80.323C86.6213 80.323 88.2084 81.0169 89.5972 82.3057C90.8867 83.5944 91.581 85.1805 91.581 87.1632C91.581 89.0467 90.8867 90.6329 89.498 91.9216C88.2084 93.2104 86.6213 93.9043 84.7367 93.9043C83.0504 93.9043 81.5625 93.3095 80.273 92.1199V87.1632C80.1738 86.4693 79.777 86.3701 79.4794 86.3701Z" fill="black"/>
<path d="M56.2681 101.438V108.576L62.7157 104.908L56.2681 101.438Z" fill="black"/>
<path d="M68.8659 101.438V108.576L62.4183 104.908L68.8659 101.438Z" fill="black"/>
</svg>
