<svg width="13" height="20" viewBox="0 0 13 20" fill="none" xmlns="http://www.w3.org/2000/svg">
<path d="M10.1826 18.9914H2.81739C1.86087 18.9914 1 18.2262 1 17.174V2.82618C1 1.86966 1.76522 1.00879 2.81739 1.00879H10.1826C11.1391 1.00879 12 1.77401 12 2.82618V17.174C12 18.1305 11.1391 18.9914 10.1826 18.9914Z" stroke="black" stroke-miterlimit="10" stroke-linecap="round" stroke-linejoin="round"/>
<path d="M2.72168 15.3564H10.2782" stroke="black" stroke-miterlimit="10" stroke-linecap="round" stroke-linejoin="round"/>
<path d="M6.35658 17.8435C6.72637 17.8435 7.02614 17.5437 7.02614 17.174C7.02614 16.8042 6.72637 16.5044 6.35658 16.5044C5.98679 16.5044 5.68701 16.8042 5.68701 17.174C5.68701 17.5437 5.98679 17.8435 6.35658 17.8435Z" fill="black"/>
</svg>
