<svg width="100" height="100" viewBox="0 0 100 100" fill="none" xmlns="http://www.w3.org/2000/svg">
<path d="M100 50C100 77.6142 77.6142 100 50 100C22.3858 100 0 77.6142 0 50C0 22.3858 22.3858 0 50 0C77.6142 0 100 22.3858 100 50Z" fill="white"/>
<path d="M70.4903 38.2793C71.1538 33.1774 68.9275 28.5239 64.542 25.8361C64.1395 25.5855 63.7203 25.3464 63.2959 25.1147C56.5499 21.4329 48.4965 20.7068 41.2008 23.1219C33.8061 25.5694 27.9294 30.8335 24.6525 37.9438C18.8339 50.581 23.3362 65.6928 35.1249 73.0945C35.6224 73.4074 36.1267 73.7033 36.6327 73.9794C36.9975 74.1785 37.3633 74.3665 37.7269 74.5443C42.3496 76.8093 47.6584 76.1742 51.5803 72.8867C55.7023 69.431 57.3272 64.0306 55.8204 58.7918L55.8199 58.7903C55.1633 56.5159 55.2784 54.5415 56.1617 52.9231C57.0423 51.3097 58.639 50.1477 60.9086 49.4691C66.1236 47.9067 69.795 43.6194 70.4903 38.2793ZM54.1258 51.8119C52.9555 53.9562 52.771 56.592 53.5921 59.4349C54.8408 63.778 53.4985 68.2515 50.0904 71.1084C46.8322 73.8395 42.5923 74.3458 38.7455 72.4605C37.9476 72.0714 37.1422 71.6228 36.3591 71.131C25.5538 64.3459 21.4273 50.4959 26.7599 38.9146C29.7642 32.3936 35.1518 27.5669 41.9295 25.3233C48.6174 23.1094 56.0004 23.7753 62.1847 27.1506C62.5694 27.3606 62.9499 27.576 63.3231 27.8094C66.9133 30.0088 68.7328 33.812 68.1896 37.9797C67.6155 42.4002 64.5701 45.9518 60.244 47.2472C57.4088 48.0945 55.2934 49.6726 54.1258 51.8119Z" fill="#9FCE9E"/>
<path d="M61.3902 28.6085C59.1634 27.3932 56.362 28.2163 55.1467 30.4431C53.9314 32.6699 54.7551 35.4703 56.9818 36.6856C59.2086 37.9009 62.0084 37.0782 63.2238 34.8515C64.4391 32.6247 63.617 29.8239 61.3902 28.6085ZM58.093 34.6497C56.9886 34.0469 56.5798 32.6587 57.1826 31.5543C57.7854 30.4499 59.1746 30.0417 60.279 30.6445C61.3834 31.2472 61.7906 32.6358 61.1878 33.7403C60.5851 34.8447 59.1975 35.2525 58.093 34.6497Z" fill="#9FCE9E"/>
<path d="M42.9457 62.403C40.7189 61.1876 37.9181 62.0098 36.7028 64.2366C35.4874 66.4633 36.3106 69.2647 38.5374 70.48C40.7641 71.6954 43.5645 70.8717 44.7798 68.6449C45.9952 66.4181 45.1725 63.6183 42.9457 62.403ZM39.6485 68.4441C38.5441 67.8413 38.1359 66.4522 38.7387 65.3477C39.3415 64.2433 40.7301 63.8361 41.8345 64.4389C42.939 65.0417 43.3467 66.4293 42.7439 67.5337C42.1411 68.6382 40.753 69.0469 39.6485 68.4441Z" fill="#9FCE9E"/>
<path d="M37.105 42.526C38.3204 40.2992 37.4982 37.4984 35.2714 36.2831C33.0447 35.0677 30.2433 35.8909 29.028 38.1176C27.8126 40.3444 28.6363 43.1448 30.8631 44.3601C33.0899 45.5755 35.8897 44.7528 37.105 42.526ZM31.9743 42.3242C30.8698 41.7214 30.4611 40.3333 31.0639 39.2288C31.6667 38.1244 33.0558 37.7162 34.1603 38.319C35.2647 38.9218 35.6719 40.3104 35.0691 41.4148C34.4663 42.5193 33.0787 42.927 31.9743 42.3242Z" fill="#9FCE9E"/>
<path d="M30.1973 50.5564C27.7637 51.2732 26.3655 53.835 27.0803 56.2675C27.426 57.4471 28.2121 58.4206 29.2907 59.0093C30.3693 59.598 31.6127 59.7309 32.7914 59.3845C33.97 59.0382 34.9439 58.2537 35.5326 57.1751C36.1213 56.0965 36.2557 54.8526 35.9084 53.6734C35.1932 51.2394 32.6314 49.8412 30.1973 50.5564ZM32.1375 57.1594C30.9666 57.5035 29.6494 56.7846 29.3053 55.6137C28.9509 54.4074 29.6443 53.1369 30.8511 52.7815C32.0578 52.4286 33.3273 53.1214 33.6833 54.3273C33.8553 54.9127 33.7886 55.5291 33.4967 56.064C33.2048 56.5988 32.723 56.9874 32.1375 57.1594Z" fill="#9FCE9E"/>
<path d="M43.2388 26.6614C40.8063 27.3762 39.4081 29.938 40.1218 32.3725C40.4794 33.5896 41.2994 34.548 42.3333 35.1123C43.3671 35.6766 44.6158 35.8472 45.8329 35.4896C47.0125 35.1438 47.986 34.3578 48.5746 33.2792C49.1633 32.2006 49.2972 30.9576 48.9499 29.7785C48.2583 27.4192 45.5971 25.9668 43.2388 26.6614ZM45.1791 33.2645C43.9712 33.6194 42.7018 32.9265 42.3469 31.7187C41.9929 30.5114 42.6863 29.241 43.8926 28.8865C44.4781 28.7145 45.0945 28.7813 45.6293 29.0732C46.1642 29.3651 46.5528 29.8468 46.7248 30.4323C46.8969 31.0178 46.8306 31.6332 46.5387 32.168C46.2468 32.7028 45.7645 33.0924 45.1791 33.2645Z" fill="#9FCE9E"/>
<path d="M75.5926 54.2464L77.2285 48.5875C78.3046 48.189 79.2545 47.4354 79.8459 46.3518C80.9483 44.3318 80.5736 38.1535 80.4871 36.9361C80.4323 36.1475 79.465 35.6222 78.7733 36.0007C77.7021 36.5876 72.3046 39.6142 71.2022 41.6342C70.6106 42.718 70.4905 43.9246 70.7374 45.0453L66.8634 49.4821C66.8309 49.5194 66.8221 49.5689 66.795 49.6093C66.7603 49.6604 66.7117 49.6998 66.6853 49.7565L55.3582 74.1011C54.6499 75.6589 55.2727 77.5225 56.7757 78.3428C58.2798 79.1637 60.1841 78.6793 61.117 77.2325L75.4582 54.5446C75.4916 54.4917 75.4984 54.4295 75.5227 54.3727C75.5419 54.3281 75.5788 54.2939 75.5926 54.2464ZM59.1625 75.9839C58.8893 76.4063 58.3293 76.5484 57.8869 76.3069C57.4445 76.0655 57.262 75.5182 57.4657 75.0694L68.267 51.8558L72.8369 54.35L59.1625 75.9839ZM69.5611 49.9198L71.8752 47.2698C72.2386 47.6756 72.6597 48.0396 73.1644 48.3151C73.6695 48.5907 74.2039 48.748 74.7421 48.8342L73.7651 52.2143L69.5611 49.9198ZM74.2756 46.2792C73.0151 45.5912 72.5501 44.0059 73.2381 42.7454C73.6933 41.9113 76.0903 40.2688 78.2673 38.9656C78.3499 41.5021 78.2657 44.4056 77.8099 45.2406C77.122 46.5011 75.5361 46.9671 74.2756 46.2792Z" fill="#9FCE9E"/>
</svg>
