<svg width="100" height="100" viewBox="0 0 100 100" fill="none" xmlns="http://www.w3.org/2000/svg">
<path d="M100 50C100 77.6142 77.6142 100 50 100C22.3858 100 0 77.6142 0 50C0 22.3858 22.3858 0 50 0C77.6142 0 100 22.3858 100 50Z" fill="white"/>
<path d="M58.7629 26.4822C58.1506 23.3173 55.2935 20.9092 52.0282 20.9092H46.654C43.3887 20.9092 40.5316 23.3173 39.9193 26.4822C39.035 26.7574 38.4227 27.5142 38.4227 28.4774C38.4227 29.0278 38.6268 29.5095 38.9669 29.8535C38.6268 30.1975 38.4227 30.6791 38.4227 31.2295C38.4227 32.1927 39.035 32.9496 39.8513 33.2248C40.4635 36.4585 43.3207 38.7977 46.586 38.7977H51.9601C55.2254 38.7977 58.0826 36.3897 58.6948 33.2248C59.5112 32.9496 60.1234 32.1927 60.1234 31.2295C60.1234 30.6791 59.9193 30.1975 59.5792 29.8535C59.9193 29.5095 60.1234 29.0278 60.1234 28.4774C60.1914 27.5142 59.5792 26.7574 58.7629 26.4822ZM46.654 22.2852H52.0282C54.5452 22.2852 56.722 24.0053 57.3343 26.4134H57.0622L56.9261 26.2757C56.586 25.9317 56.1778 25.7253 55.6336 25.7253H55.2254C54.7493 25.7253 54.2731 25.9317 53.9329 26.2757C53.8649 26.3446 53.7289 26.4134 53.5928 26.4134H53.1846C53.0486 26.4134 52.9125 26.3446 52.8445 26.2757C52.5044 25.9317 52.0962 25.7253 51.552 25.7253H51.1438C50.6676 25.7253 50.1914 25.9317 49.8513 26.2757C49.7833 26.3446 49.6472 26.4134 49.5112 26.4134H49.103C48.9669 26.4134 48.8309 26.3446 48.7629 26.2757C48.4227 25.9317 48.0146 25.7253 47.4703 25.7253H47.0622C46.586 25.7253 46.1098 25.9317 45.7697 26.2757C45.7016 26.3446 45.5656 26.4134 45.4295 26.4134H45.0214C44.8853 26.4134 44.7493 26.3446 44.6812 26.2757C44.3411 25.9317 43.9329 25.7253 43.3887 25.7253H42.9806C42.5044 25.7253 42.0282 25.9317 41.688 26.2757L41.552 26.4134H41.2799C41.9601 24.0053 44.137 22.2852 46.654 22.2852ZM40.4635 27.7894H42.0962L42.6404 27.239C42.7765 27.1702 42.9125 27.1014 42.9806 27.1014H43.3887C43.5248 27.1014 43.6608 27.1702 43.7289 27.239C44.069 27.583 44.5452 27.7894 45.0214 27.7894H45.4295C45.9057 27.7894 46.3819 27.583 46.722 27.239C46.8581 27.1702 46.9942 27.1014 47.0622 27.1014H47.4703C47.6064 27.1014 47.7425 27.1702 47.8105 27.239C48.1506 27.583 48.6268 27.7894 49.103 27.7894H49.5112C49.9874 27.7894 50.4635 27.583 50.8037 27.239C50.9397 27.1702 51.0758 27.1014 51.1438 27.1014H51.552C51.688 27.1014 51.8241 27.1702 51.8921 27.239C52.2322 27.583 52.7084 27.7894 53.1846 27.7894H53.5928C54.069 27.7894 54.5452 27.583 54.8853 27.239C55.0214 27.1702 55.1574 27.1014 55.2254 27.1014H55.6336C55.7697 27.1014 55.9057 27.1702 55.9737 27.239L56.518 27.7894H58.1506C58.5588 27.7894 58.8309 28.0646 58.8309 28.4774C58.8309 28.8902 58.5588 29.1654 58.1506 29.1654H40.4635C40.0554 29.1654 39.7833 28.8902 39.7833 28.4774C39.7833 28.0646 40.1234 27.7894 40.4635 27.7894ZM52.0282 37.4217H46.654C44.137 37.4217 41.9601 35.7016 41.3479 33.2936H57.4023C56.722 35.7016 54.5452 37.4217 52.0282 37.4217ZM58.1506 31.9175H40.4635C40.0554 31.9175 39.7833 31.6423 39.7833 31.2295C39.7833 30.8167 40.0554 30.5415 40.4635 30.5415H58.1506C58.5588 30.5415 58.8309 30.8167 58.8309 31.2295C58.8309 31.6423 58.5588 31.9175 58.1506 31.9175Z" fill="#E67285"/>
<path d="M34.8855 64.0481C34.2733 60.8144 31.4162 58.4751 28.1509 58.4751H22.7767C19.5114 58.4751 16.6543 60.8832 16.042 64.0481C15.1577 64.3233 14.5454 65.0801 14.5454 66.0433C14.5454 66.5938 14.7495 67.0754 15.0896 67.4194C14.7495 67.7634 14.5454 68.245 14.5454 68.7954C14.5454 69.7586 15.1577 70.5155 15.974 70.7907C16.5862 74.0244 19.4434 76.3637 22.7087 76.3637H28.0828C31.3481 76.3637 34.2053 73.9556 34.8175 70.7907C35.6338 70.5155 36.2461 69.7586 36.2461 68.7954C36.2461 68.245 36.042 67.7634 35.7019 67.4194C36.042 67.0754 36.2461 66.5938 36.2461 66.0433C36.3141 65.0801 35.7019 64.3233 34.8855 64.0481ZM22.7767 59.8511H28.1509C30.6679 59.8511 32.8447 61.5712 33.457 63.9793H33.1849L33.0488 63.8417C32.7087 63.4977 32.2325 63.2912 31.7563 63.2912H31.3481C30.8719 63.2912 30.3957 63.4977 30.0556 63.8417C29.9876 63.9105 29.8515 63.9793 29.7155 63.9793H29.3073C29.1713 63.9793 29.0352 63.9105 28.9672 63.8417C28.627 63.4977 28.1509 63.2912 27.6747 63.2912H27.2665C26.7903 63.2912 26.3141 63.4977 25.974 63.8417C25.906 63.9105 25.7699 63.9793 25.6338 63.9793H25.2257C25.0896 63.9793 24.9536 63.9105 24.8855 63.8417C24.5454 63.4977 24.0692 63.2912 23.593 63.2912H23.1849C22.7087 63.2912 22.2325 63.4977 21.8923 63.8417C21.8243 63.9105 21.6883 63.9793 21.5522 63.9793H21.144C21.008 63.9793 20.8719 63.9105 20.8039 63.8417C20.4638 63.4977 19.9876 63.2912 19.5114 63.2912H19.1032C18.627 63.2912 18.1509 63.4977 17.8107 63.8417L17.6747 63.9793H17.4026C18.0828 61.5712 20.2597 59.8511 22.7767 59.8511ZM16.5862 65.3553H18.2189L18.7631 64.8049C18.8311 64.7361 18.9672 64.6673 19.1032 64.6673H19.5114C19.6475 64.6673 19.7835 64.7361 19.8515 64.8049C20.1917 65.1489 20.6679 65.3553 21.144 65.3553H21.5522C22.0284 65.3553 22.5046 65.1489 22.8447 64.8049C22.9128 64.7361 23.0488 64.6673 23.1849 64.6673H23.593C23.7291 64.6673 23.8651 64.7361 23.9332 64.8049C24.2733 65.1489 24.7495 65.3553 25.2257 65.3553H25.6338C26.11 65.3553 26.5862 65.1489 26.9264 64.8049C26.9944 64.7361 27.1304 64.6673 27.2665 64.6673H27.6747C27.8107 64.6673 27.9468 64.7361 28.0148 64.8049C28.3549 65.1489 28.8311 65.3553 29.3073 65.3553H29.7155C30.1917 65.3553 30.6679 65.1489 31.008 64.8049C31.076 64.7361 31.2121 64.6673 31.3481 64.6673H31.7563C31.8923 64.6673 32.0284 64.7361 32.0964 64.8049L32.6406 65.3553H34.2733C34.6815 65.3553 34.9536 65.6305 34.9536 66.0433C34.9536 66.4561 34.6815 66.7314 34.2733 66.7314H16.5862C16.1781 66.7314 15.906 66.4561 15.906 66.0433C15.906 65.6305 16.1781 65.3553 16.5862 65.3553ZM28.0828 74.9876H22.7087C20.1917 74.9876 18.0148 73.2676 17.4026 70.8595H33.457C32.7767 73.2676 30.5998 74.9876 28.0828 74.9876ZM34.2733 69.4834H16.5862C16.1781 69.4834 15.906 69.2082 15.906 68.7954C15.906 68.3826 16.1781 68.1074 16.5862 68.1074H34.2733C34.6815 68.1074 34.9536 68.3826 34.9536 68.7954C34.9536 69.1394 34.6815 69.4834 34.2733 69.4834Z" fill="#E67285"/>
<path d="M58.967 64.0481C58.3547 60.8144 55.4976 58.4751 52.2323 58.4751H46.8581C43.5928 58.4751 40.7357 60.8832 40.1235 64.0481C39.3071 64.3233 38.6949 65.0801 38.6949 66.0433C38.6949 66.5938 38.899 67.0754 39.2391 67.4194C38.899 67.7634 38.6949 68.245 38.6949 68.7954C38.6949 69.7586 39.3071 70.5155 40.1235 70.7907C40.7357 74.0244 43.5928 76.3637 46.8581 76.3637H52.2323C55.4976 76.3637 58.3547 73.9556 58.967 70.7907C59.7833 70.5155 60.3956 69.7586 60.3956 68.7954C60.3956 68.245 60.1915 67.7634 59.8513 67.4194C60.1915 67.0754 60.3956 66.5938 60.3956 66.0433C60.3956 65.0801 59.7833 64.3233 58.967 64.0481ZM46.8581 59.8511H52.2323C54.7493 59.8511 56.9262 61.5712 57.5384 63.9793H57.2663L57.1303 63.8417C56.7901 63.4977 56.3139 63.2912 55.8377 63.2912H55.4296C54.9534 63.2912 54.4772 63.4977 54.1371 63.8417C54.069 63.9105 53.933 63.9793 53.7969 63.9793H53.3888C53.2527 63.9793 53.1166 63.9105 53.0486 63.8417C52.7085 63.4977 52.2323 63.2912 51.7561 63.2912H51.3479C50.8718 63.2912 50.3956 63.4977 50.0554 63.8417C49.9874 63.9105 49.8513 63.9793 49.7153 63.9793H49.3071C49.1711 63.9793 49.035 63.9105 48.967 63.8417C48.6269 63.4977 48.1507 63.2912 47.6745 63.2912H47.2663C46.7901 63.2912 46.3139 63.4977 45.9738 63.8417C45.9058 63.9105 45.7697 63.9793 45.6337 63.9793H45.2255C45.0894 63.9793 44.9534 63.9105 44.8854 63.8417C44.5452 63.4977 44.069 63.2912 43.5928 63.2912H43.1847C42.7085 63.2912 42.2323 63.4977 41.8922 63.8417L41.7561 63.9793H41.484C42.1643 61.5712 44.3411 59.8511 46.8581 59.8511ZM40.6677 65.3553H42.3003L42.8445 64.8049C42.9126 64.7361 43.0486 64.6673 43.1847 64.6673H43.5928C43.7289 64.6673 43.865 64.7361 43.933 64.8049C44.2731 65.1489 44.7493 65.3553 45.2255 65.3553H45.6337C46.1098 65.3553 46.586 65.1489 46.9262 64.8049C46.9942 64.7361 47.1303 64.6673 47.2663 64.6673H47.6745C47.8105 64.6673 47.9466 64.7361 48.0146 64.8049C48.3547 65.1489 48.8309 65.3553 49.3071 65.3553H49.7153C50.1915 65.3553 50.6677 65.1489 51.0078 64.8049C51.0758 64.7361 51.2119 64.6673 51.3479 64.6673H51.7561C51.8922 64.6673 52.0282 64.7361 52.0962 64.8049C52.4364 65.1489 52.9126 65.3553 53.3888 65.3553H53.7969C54.2731 65.3553 54.7493 65.1489 55.0894 64.8049C55.1575 64.7361 55.2935 64.6673 55.4296 64.6673H55.8377C55.9738 64.6673 56.1098 64.7361 56.1779 64.8049L56.7221 65.3553H58.3547C58.7629 65.3553 59.035 65.6305 59.035 66.0433C59.035 66.4561 58.7629 66.7314 58.3547 66.7314H40.6677C40.2595 66.7314 39.9874 66.4561 39.9874 66.0433C39.9874 65.6305 40.3275 65.3553 40.6677 65.3553ZM52.2323 74.9876H46.8581C44.3411 74.9876 42.1643 73.2676 41.552 70.8595H57.6064C56.9262 73.2676 54.7493 74.9876 52.2323 74.9876ZM58.3547 69.4834H40.6677C40.2595 69.4834 39.9874 69.2082 39.9874 68.7954C39.9874 68.3826 40.2595 68.1074 40.6677 68.1074H58.3547C58.7629 68.1074 59.035 68.3826 59.035 68.7954C59.035 69.1394 58.7629 69.4834 58.3547 69.4834Z" fill="#E67285"/>
<path d="M83.0488 64.0481C82.4366 60.8144 79.5795 58.4751 76.3141 58.4751H70.94C67.6747 58.4751 64.8176 60.8832 64.2053 64.0481C63.389 64.3233 62.7767 65.0801 62.7767 66.0433C62.7767 66.5938 62.9808 67.0754 63.3209 67.4194C62.9808 67.7634 62.7767 68.245 62.7767 68.7954C62.7767 69.7586 63.389 70.5155 64.2053 70.7907C64.8176 74.0244 67.6747 76.3637 70.94 76.3637H76.3141C79.5795 76.3637 82.4366 73.9556 83.0488 70.7907C83.8652 70.5155 84.4774 69.7586 84.4774 68.7954C84.4774 68.245 84.2733 67.7634 83.9332 67.4194C84.2733 67.0754 84.4774 66.5938 84.4774 66.0433C84.5454 65.0801 83.9332 64.3233 83.0488 64.0481ZM70.94 59.8511H76.3141C78.8312 59.8511 81.008 61.5712 81.6203 63.9793H81.3482L81.2121 63.8417C80.872 63.4977 80.3958 63.2912 79.9196 63.2912H79.5114C79.0352 63.2912 78.559 63.4977 78.2189 63.8417C78.1509 63.9105 78.0148 63.9793 77.8788 63.9793H77.4706C77.3345 63.9793 77.1985 63.9105 77.1305 63.8417C76.7903 63.4977 76.3141 63.2912 75.838 63.2912H75.4298C74.9536 63.2912 74.4774 63.4977 74.1373 63.8417C74.0692 63.9105 73.9332 63.9793 73.7971 63.9793H73.389C73.2529 63.9793 73.1169 63.9105 73.0488 63.8417C72.7087 63.4977 72.2325 63.2912 71.7563 63.2912H71.3482C70.872 63.2912 70.3958 63.4977 70.0556 63.8417C69.9876 63.9105 69.8516 63.9793 69.7155 63.9793H69.3073C69.1713 63.9793 69.0352 63.9105 68.9672 63.8417C68.6271 63.4977 68.1509 63.2912 67.6747 63.2912H67.2665C66.7903 63.2912 66.3141 63.4977 65.974 63.8417L65.838 63.9793H65.5658C66.2461 61.5712 68.423 59.8511 70.94 59.8511ZM64.8176 65.3553H66.4502L66.9944 64.8049C67.0624 64.7361 67.1985 64.6673 67.3346 64.6673H67.7427C67.8788 64.6673 68.0148 64.7361 68.0829 64.8049C68.423 65.1489 68.8992 65.3553 69.3754 65.3553H69.7835C70.2597 65.3553 70.7359 65.1489 71.076 64.8049C71.1441 64.7361 71.2801 64.6673 71.4162 64.6673H71.8243C71.9604 64.6673 72.0965 64.7361 72.1645 64.8049C72.5046 65.1489 72.9808 65.3553 73.457 65.3553H73.8652C74.3414 65.3553 74.8175 65.1489 75.1577 64.8049C75.2257 64.7361 75.3618 64.6673 75.4978 64.6673H75.906C76.042 64.6673 76.1781 64.7361 76.2461 64.8049C76.5863 65.1489 77.0624 65.3553 77.5386 65.3553H77.9468C78.423 65.3553 78.8992 65.1489 79.2393 64.8049C79.3073 64.7361 79.4434 64.6673 79.5795 64.6673H79.9876C80.1237 64.6673 80.2597 64.7361 80.3277 64.8049L80.872 65.3553H82.5046C82.9128 65.3553 83.1849 65.6305 83.1849 66.0433C83.1849 66.4561 82.9128 66.7314 82.5046 66.7314H64.8176C64.4094 66.7314 64.1373 66.4561 64.1373 66.0433C64.1373 65.6305 64.4094 65.3553 64.8176 65.3553ZM76.3141 74.9876H70.94C68.423 74.9876 66.2461 73.2676 65.6339 70.8595H81.6883C81.008 73.2676 78.8312 74.9876 76.3141 74.9876ZM82.5046 69.4834H64.8176C64.4094 69.4834 64.1373 69.2082 64.1373 68.7954C64.1373 68.3826 64.4094 68.1074 64.8176 68.1074H82.5046C82.9128 68.1074 83.1849 68.3826 83.1849 68.7954C83.1849 69.1394 82.8448 69.4834 82.5046 69.4834Z" fill="#E67285"/>
<path d="M46.9264 45.2654C46.3142 42.0317 43.457 39.6924 40.1917 39.6924H34.8176C31.5523 39.6924 28.6951 42.1005 28.0829 45.2654C27.2665 45.5406 26.6543 46.2974 26.6543 47.2606C26.6543 47.811 26.8584 48.2927 27.1985 48.6367C26.8584 48.9807 26.6543 49.4623 26.6543 50.0127C26.6543 50.9759 27.2665 51.7328 28.0829 52.008C28.6951 55.2417 31.5523 57.5809 34.8176 57.5809H40.1917C43.457 57.5809 46.3142 55.1729 46.9264 52.008C47.7427 51.7328 48.355 50.9759 48.355 50.0127C48.355 49.4623 48.1509 48.9807 47.8108 48.6367C48.1509 48.2927 48.355 47.811 48.355 47.2606C48.355 46.2974 47.7427 45.4718 46.9264 45.2654ZM34.8176 40.9996H40.1917C42.7087 40.9996 44.8856 42.7197 45.4978 45.1278H45.2257L45.0897 44.9902C44.7495 44.6461 44.2733 44.4397 43.7971 44.4397H43.389C42.9128 44.4397 42.4366 44.6461 42.0965 44.9902C42.0284 45.059 41.8924 45.1278 41.7563 45.1278H41.3482C41.2121 45.1278 41.0761 45.059 41.008 44.9902C40.6679 44.6461 40.1917 44.4397 39.7155 44.4397H39.3074C38.8312 44.4397 38.355 44.6461 38.0148 44.9902C37.9468 45.059 37.8108 45.1278 37.6747 45.1278H37.2665C37.1305 45.1278 36.9944 45.059 36.9264 44.9902C36.5863 44.6461 36.1101 44.4397 35.6339 44.4397H35.2257C34.7495 44.4397 34.2733 44.6461 33.9332 44.9902C33.8652 45.059 33.7291 45.1278 33.5931 45.1278H33.1849C33.0489 45.1278 32.9128 45.059 32.8448 44.9902C32.5046 44.6461 32.0284 44.4397 31.5523 44.4397H31.1441C30.6679 44.4397 30.1917 44.6461 29.8516 44.9902L29.7155 45.1278H29.4434C30.1237 42.7197 32.3006 40.9996 34.8176 40.9996ZM28.6271 46.5038H30.2597L30.804 45.9534C30.872 45.8846 31.008 45.8158 31.1441 45.8158H31.5523C31.6883 45.8158 31.8244 45.8846 31.8924 45.9534C32.2325 46.2974 32.7087 46.5038 33.1849 46.5038H33.5931C34.0693 46.5038 34.5455 46.2974 34.8856 45.9534C34.9536 45.8846 35.0897 45.8158 35.2257 45.8158H35.6339C35.7699 45.8158 35.906 45.8846 35.974 45.9534C36.3142 46.2974 36.7903 46.5038 37.2665 46.5038H37.6747C38.1509 46.5038 38.6271 46.2974 38.9672 45.9534C39.0352 45.8846 39.1713 45.8158 39.3074 45.8158H39.7155C39.8516 45.8158 39.9876 45.8846 40.0557 45.9534C40.3958 46.2974 40.872 46.5038 41.3482 46.5038H41.7563C42.2325 46.5038 42.7087 46.2974 43.0489 45.9534C43.1169 45.8846 43.2529 45.8158 43.389 45.8158H43.7971C43.9332 45.8158 44.0693 45.8846 44.1373 45.9534L44.6815 46.5038H46.3142C46.7223 46.5038 46.9944 46.779 46.9944 47.1918C46.9944 47.6046 46.7223 47.8798 46.3142 47.8798H28.6271C28.2189 47.8798 27.9468 47.6046 27.9468 47.1918C27.9468 46.779 28.287 46.5038 28.6271 46.5038ZM40.1917 56.1361H34.8176C32.3006 56.1361 30.1237 54.416 29.5114 52.008H45.5659C44.8176 54.416 42.7087 56.1361 40.1917 56.1361ZM46.3142 50.6319H28.6271C28.2189 50.6319 27.9468 50.3567 27.9468 49.9439C27.9468 49.5311 28.2189 49.2559 28.6271 49.2559H46.3142C46.7223 49.2559 46.9944 49.5311 46.9944 49.9439C46.9944 50.3567 46.7223 50.6319 46.3142 50.6319Z" fill="#E67285"/>
<path d="M71.0079 45.2654C70.3957 42.0317 67.5386 39.6924 64.2733 39.6924H58.8991C55.6338 39.6924 52.7767 42.1005 52.1644 45.2654C51.3481 45.5406 50.7358 46.2974 50.7358 47.2606C50.7358 47.811 50.9399 48.2927 51.2801 48.6367C50.9399 48.9807 50.7358 49.4623 50.7358 50.0127C50.7358 50.9759 51.3481 51.7328 52.1644 52.008C52.7767 55.2417 55.6338 57.5809 58.8991 57.5809H64.2733C67.5386 57.5809 70.3957 55.1729 71.0079 52.008C71.8243 51.7328 72.4365 50.9759 72.4365 50.0127C72.4365 49.4623 72.2324 48.9807 71.8923 48.6367C72.2324 48.2927 72.4365 47.811 72.4365 47.2606C72.4365 46.2974 71.8243 45.4718 71.0079 45.2654ZM58.8991 40.9996H64.2733C66.7903 40.9996 68.9671 42.7197 69.5794 45.1278H69.3073L69.1712 44.9902C68.8311 44.6461 68.3549 44.4397 67.8787 44.4397H67.4705C66.9943 44.4397 66.5182 44.6461 66.178 44.9902C66.11 45.059 65.9739 45.1278 65.8379 45.1278H65.4297C65.2937 45.1278 65.1576 45.059 65.0896 44.9902C64.7494 44.6461 64.2733 44.4397 63.7971 44.4397H63.3889C62.9127 44.4397 62.4365 44.6461 62.0964 44.9902C62.0284 45.059 61.8923 45.1278 61.7562 45.1278H61.3481C61.212 45.1278 61.076 45.059 61.0079 44.9902C60.6678 44.6461 60.1916 44.4397 59.7154 44.4397H59.3073C58.8311 44.4397 58.3549 44.6461 58.0148 44.9902C57.9467 45.059 57.8107 45.1278 57.6746 45.1278H57.2664C57.1304 45.1278 56.9943 45.059 56.9263 44.9902C56.5862 44.6461 56.11 44.4397 55.6338 44.4397H55.2256C54.7494 44.4397 54.2733 44.6461 53.9331 44.9902L53.7971 45.1278H53.525C54.2052 42.7197 56.3821 40.9996 58.8991 40.9996ZM52.7086 46.5038H54.3413L54.8855 45.9534C54.9535 45.8846 55.0896 45.8158 55.2256 45.8158H55.6338C55.7699 45.8158 55.9059 45.8846 55.9739 45.9534C56.3141 46.2974 56.7903 46.5038 57.2664 46.5038H57.6746C58.1508 46.5038 58.627 46.2974 58.9671 45.9534C59.0352 45.8846 59.1712 45.8158 59.3073 45.8158H59.7154C59.8515 45.8158 59.9875 45.8846 60.0556 45.9534C60.3957 46.2974 60.8719 46.5038 61.3481 46.5038H61.7562C62.2324 46.5038 62.7086 46.2974 63.0488 45.9534C63.1168 45.8846 63.2528 45.8158 63.3889 45.8158H63.7971C63.9331 45.8158 64.0692 45.8846 64.1372 45.9534C64.4773 46.2974 64.9535 46.5038 65.4297 46.5038H65.8379C66.3141 46.5038 66.7903 46.2974 67.1304 45.9534C67.1984 45.8846 67.3345 45.8158 67.4705 45.8158H67.8787C68.0147 45.8158 68.1508 45.8846 68.2188 45.9534L68.763 46.5038H70.3957C70.8039 46.5038 71.076 46.779 71.076 47.1918C71.076 47.6046 70.8039 47.8798 70.3957 47.8798H52.7086C52.3005 47.8798 52.0284 47.6046 52.0284 47.1918C52.0284 46.779 52.3685 46.5038 52.7086 46.5038ZM64.2733 56.1361H58.8991C56.3821 56.1361 54.2052 54.416 53.593 52.008H69.6474C68.9671 54.416 66.7903 56.1361 64.2733 56.1361ZM70.3957 50.6319H52.7086C52.3005 50.6319 52.0284 50.3567 52.0284 49.9439C52.0284 49.5311 52.3005 49.2559 52.7086 49.2559H70.3957C70.8039 49.2559 71.076 49.5311 71.076 49.9439C71.076 50.3567 70.8039 50.6319 70.3957 50.6319Z" fill="#E67285"/>
</svg>
