<svg width="100" height="100" viewBox="0 0 100 100" fill="none" xmlns="http://www.w3.org/2000/svg">
<path d="M100 50C100 77.6142 77.6142 100 50 100C22.3858 100 0 77.6142 0 50C0 22.3858 22.3858 0 50 0C77.6142 0 100 22.3858 100 50Z" fill="white"/>
<path d="M77.252 60.6575C76.4778 56.5928 72.8969 53.6894 68.7354 53.6894H61.9609C57.7993 53.6894 54.2185 56.6896 53.4443 60.6575C52.3797 60.9479 51.6054 61.9157 51.6054 63.077C51.6054 63.7545 51.8958 64.3352 52.2829 64.8191C51.8958 65.303 51.6054 65.8836 51.6054 66.5611C51.6054 67.7225 52.3797 68.6903 53.4443 68.9806C54.2185 73.0453 57.7993 75.9487 61.9609 75.9487H68.7354C72.8969 75.9487 76.4778 72.9486 77.252 68.9806C78.3166 68.6903 79.0908 67.7225 79.0908 66.5611C79.0908 65.8836 78.8005 65.303 78.4134 64.8191C78.8005 64.3352 79.0908 63.7545 79.0908 63.077C79.0908 62.0125 78.3166 60.9479 77.252 60.6575ZM61.9609 55.4315H68.7354C71.9292 55.4315 74.639 57.5606 75.51 60.5608H75.2197L75.0261 60.3672C74.5422 59.8833 73.9615 59.6898 73.3809 59.6898H72.8969C72.3163 59.6898 71.7356 59.8833 71.2517 60.3672C71.1549 60.464 70.9614 60.5608 70.8646 60.5608H70.3807C70.1871 60.5608 70.0903 60.464 69.9936 60.3672C69.5097 59.8833 68.929 59.6898 68.3483 59.6898H67.8644C67.2837 59.6898 66.7031 59.8833 66.2192 60.3672C66.1224 60.464 65.9288 60.5608 65.832 60.5608H65.3481C65.1546 60.5608 65.0578 60.464 64.961 60.3672C64.4771 59.8833 63.8965 59.6898 63.3158 59.6898H62.8319C62.2512 59.6898 61.6705 59.8833 61.1866 60.3672C61.0898 60.464 60.8963 60.5608 60.7995 60.5608H60.3156C60.122 60.5608 60.0253 60.464 59.9285 60.3672C59.4446 59.8833 58.8639 59.6898 58.2832 59.6898H57.7993C57.2187 59.6898 56.638 59.8833 56.1541 60.3672L55.5734 60.5608H55.2831C56.0573 57.5606 58.7671 55.4315 61.9609 55.4315ZM54.2185 62.3028H56.2509L56.9283 61.6253C57.0251 61.5286 57.2187 61.4318 57.3154 61.4318H57.7993C57.9929 61.4318 58.0897 61.5286 58.1865 61.6253C58.6704 62.1092 59.251 62.3028 59.8317 62.3028H60.4124C60.9931 62.3028 61.5737 62.1092 62.0576 61.6253C62.1544 61.5286 62.348 61.4318 62.4448 61.4318H62.9287C63.1222 61.4318 63.219 61.5286 63.3158 61.6253C63.7997 62.1092 64.3804 62.3028 64.961 62.3028H65.4449C66.0256 62.3028 66.6063 62.1092 67.0902 61.6253C67.187 61.5286 67.3805 61.4318 67.4773 61.4318H68.1548C68.3483 61.4318 68.4451 61.5286 68.5419 61.6253C69.0258 62.1092 69.6064 62.3028 70.1871 62.3028H70.671C71.2517 62.3028 71.8324 62.1092 72.3163 61.6253C72.413 61.5286 72.6066 61.4318 72.7034 61.4318H73.1873C73.3808 61.4318 73.4776 61.5286 73.5744 61.6253L74.2519 62.3028H76.2842C76.7681 62.3028 77.1553 62.6899 77.1553 63.1738C77.1553 63.6577 76.7681 64.0448 76.2842 64.0448H54.2185C53.7346 64.0448 53.3475 63.6577 53.3475 63.1738C53.3475 62.6899 53.7346 62.3028 54.2185 62.3028ZM68.7354 74.3035H61.9609C58.7671 74.3035 56.0573 72.1743 55.1863 69.1741H75.4132C74.639 72.1743 71.9292 74.3035 68.7354 74.3035ZM76.4778 67.4321H54.2185C53.7346 67.4321 53.3475 67.045 53.3475 66.5611C53.3475 66.0772 53.7346 65.6901 54.2185 65.6901H76.5746C77.0585 65.6901 77.4456 66.0772 77.4456 66.5611C77.3488 67.045 76.9617 67.4321 76.4778 67.4321Z" fill="#57B6BB"/>
<path d="M52.4767 69.4043H48.9926V44.444H60.3158V52.855C60.6061 52.855 60.8965 52.855 61.1868 52.855C61.5739 52.855 61.8643 52.855 62.1546 52.9518V44.5408H63.9934C64.4773 44.5408 64.9612 44.0569 64.9612 43.573V34.9596C64.9612 34.4757 64.4773 33.9918 63.9934 33.9918H53.2509C54.1219 33.024 54.7026 31.669 54.7026 30.2173C54.7026 27.1204 52.1863 24.6041 49.0894 24.6041C47.2506 24.6041 45.6053 25.4751 44.6375 26.8301C43.5729 24.8945 41.5406 23.6363 39.2179 23.6363C35.8306 23.6363 33.1207 26.3462 33.1207 29.7334C33.1207 31.3787 33.7982 32.8304 34.8628 33.9918H24.6041C24.1203 33.9918 23.6364 34.4757 23.6364 34.9596V43.3794C23.6364 43.8633 24.1203 44.3472 24.6041 44.3472H26.443V70.2753C26.443 70.7592 26.9269 71.2431 27.4108 71.2431H53.1541C52.8638 70.6624 52.6702 70.0818 52.4767 69.4043ZM63.1224 35.9274V42.5084H48.9926V35.9274H63.1224ZM45.315 30.3142C45.315 28.185 46.9602 26.5397 49.0894 26.5397C51.2185 26.5397 52.8638 28.185 52.8638 30.3142C52.8638 32.4433 51.2185 34.0885 49.0894 34.0885H45.315V30.3142ZM39.1211 25.5719C41.4438 25.5719 43.3794 27.4108 43.3794 29.8303V34.0885H39.1211C36.7984 34.0885 34.8628 32.2498 34.8628 29.8303C34.9596 27.5076 36.7984 25.5719 39.1211 25.5719ZM28.3785 69.4043V44.444H39.7018V69.4043H28.3785ZM39.605 42.5084H25.4752V35.9274H39.605V42.5084ZM47.1538 69.4043H41.5406V44.444H47.1538V69.4043ZM47.1538 42.5084H41.5406V35.9274H47.1538V42.5084Z" fill="#57B6BB"/>
</svg>
