<svg width="100" height="100" viewBox="0 0 100 100" fill="none" xmlns="http://www.w3.org/2000/svg">
<path d="M100 50C100 77.6142 77.6142 100 50 100C22.3858 100 0 77.6142 0 50C0 22.3858 22.3858 0 50 0C77.6142 0 100 22.3858 100 50Z" fill="white"/>
<path d="M77.5619 22.4383V77.5619H22.4383V22.4383H77.5619ZM77.5619 20.9092H22.4383C21.5973 20.9092 20.9092 21.5973 20.9092 22.4383V77.5619C20.9092 78.4029 21.5973 79.091 22.4383 79.091H77.5619C78.4029 79.091 79.091 78.4029 79.091 77.5619V22.4383C79.091 21.5973 78.4029 20.9092 77.5619 20.9092Z" fill="#F4976E"/>
<path d="M50.8029 37.8056C50.8029 37.194 50.5735 36.6588 50.1912 36.2765C50.5735 35.8942 50.8029 35.359 50.8029 34.7474C50.8029 33.6771 50.1148 32.8361 49.1973 32.5302C48.4328 28.9369 45.2981 26.3374 41.5519 26.3374H35.512C31.7657 26.3374 28.6311 29.0133 27.943 32.5302C27.0255 32.8361 26.3374 33.6771 26.3374 34.7474C26.3374 35.359 26.5668 35.8942 26.9491 36.2765C26.5668 36.6588 26.3374 37.194 26.3374 37.8056C26.3374 38.876 27.0255 39.717 27.943 40.0228C28.6311 43.6161 31.8422 46.2156 35.512 46.2156H41.5519C45.2217 46.2156 48.4328 43.5397 49.1209 40.0228C50.1148 39.717 50.8029 38.7995 50.8029 37.8056ZM35.512 27.8665H41.5519C44.3807 27.8665 46.8272 29.7779 47.5153 32.4538H47.2095L47.0566 32.3009C46.6743 31.9186 46.1391 31.6892 45.604 31.6892H45.1452C44.6101 31.6892 44.0749 31.9186 43.6926 32.3009C43.6161 32.3773 43.4632 32.4538 43.3103 32.4538H42.8516C42.6987 32.4538 42.5458 32.3773 42.4693 32.3009C42.0871 31.9186 41.5519 31.6892 41.0167 31.6892H40.558C40.0228 31.6892 39.4876 31.9186 39.1053 32.3009C39.0289 32.3773 38.876 32.4538 38.7231 32.4538H38.2643C38.1114 32.4538 37.9585 32.3773 37.8821 32.3009C37.4998 31.9186 36.9646 31.6892 36.4294 31.6892H35.9707C35.4355 31.6892 34.9003 31.9186 34.5181 32.3009C34.4416 32.3773 34.2887 32.4538 34.1358 32.4538H33.6771C33.5242 32.4538 33.3713 32.3773 33.2948 32.3009C32.9125 31.9186 32.3773 31.6892 31.8422 31.6892H31.3834C30.8483 31.6892 30.3131 31.9186 29.9308 32.3009L29.7779 32.4538H29.4721C30.2366 29.7779 32.6832 27.8665 35.512 27.8665ZM28.6311 33.9829H30.466L31.0776 33.3712C31.1541 33.2948 31.307 33.2183 31.4599 33.2183H31.9186C32.0715 33.2183 32.2244 33.2948 32.3009 33.3712C32.6832 33.7535 33.2183 33.9829 33.7535 33.9829H34.2123C34.7474 33.9829 35.2826 33.7535 35.6649 33.3712C35.7413 33.2948 35.8942 33.2183 36.0472 33.2183H36.5059C36.6588 33.2183 36.8117 33.2948 36.8882 33.3712C37.2704 33.7535 37.8056 33.9829 38.3408 33.9829H38.7995C39.3347 33.9829 39.8699 33.7535 40.2522 33.3712C40.3286 33.2948 40.4815 33.2183 40.6344 33.2183H41.0932C41.2461 33.2183 41.399 33.2948 41.4754 33.3712C41.8577 33.7535 42.3929 33.9829 42.9281 33.9829H43.3868C43.922 33.9829 44.4571 33.7535 44.8394 33.3712C44.9159 33.2948 45.0688 33.2183 45.2217 33.2183H45.6804C45.8333 33.2183 45.9862 33.2948 46.0627 33.3712L46.6743 33.9829H48.5092C48.968 33.9829 49.2738 34.2887 49.2738 34.7474C49.2738 35.2061 48.968 35.512 48.5092 35.512H28.6311C28.1724 35.512 27.8665 35.2061 27.8665 34.7474C27.8665 34.2887 28.1724 33.9829 28.6311 33.9829ZM28.6311 37.041H48.5092C48.968 37.041 49.2738 37.3469 49.2738 37.8056C49.2738 38.2643 48.968 38.5701 48.5092 38.5701H28.6311C28.1724 38.5701 27.8665 38.2643 27.8665 37.8056C27.8665 37.3469 28.1724 37.041 28.6311 37.041ZM41.5519 44.6865H35.512C32.6832 44.6865 30.2366 42.7751 29.5485 40.0992H47.5918C46.8272 42.7751 44.3807 44.6865 41.5519 44.6865Z" fill="#F4976E"/>
<path d="M72.0572 60.0539C71.3691 56.4605 68.158 53.8611 64.4882 53.8611H58.4483C54.7785 53.8611 51.5674 56.537 50.8793 60.0539C49.9619 60.3597 49.2738 61.2007 49.2738 62.271C49.2738 62.8827 49.5032 63.4179 49.8854 63.8001C49.5032 64.1824 49.2738 64.7176 49.2738 65.3292C49.2738 66.3996 49.9619 67.2406 50.8793 67.5464C51.5674 71.1398 54.7785 73.7392 58.4483 73.7392H64.4882C68.158 73.7392 71.3691 71.0633 72.0572 67.5464C72.9747 67.2406 73.6628 66.3996 73.6628 65.3292C73.6628 64.7176 73.4334 64.1824 73.0511 63.8001C73.4334 63.4179 73.6628 62.8827 73.6628 62.271C73.7392 61.2007 73.0511 60.3597 72.0572 60.0539ZM58.4483 55.3902H64.4882C67.317 55.3902 69.7636 57.3015 70.4517 59.9774H70.1459L69.9929 59.8245C69.6107 59.4422 69.0755 59.2129 68.5403 59.2129H68.0816C67.5464 59.2129 67.0112 59.4422 66.629 59.8245C66.5525 59.901 66.3996 59.9774 66.2467 59.9774H65.7879C65.635 59.9774 65.4821 59.901 65.4057 59.8245C65.0234 59.4422 64.4882 59.2129 63.953 59.2129H63.4943C62.9591 59.2129 62.424 59.4422 62.0417 59.8245C61.9652 59.901 61.8123 59.9774 61.6594 59.9774H61.2007C61.0478 59.9774 60.8949 59.901 60.8184 59.8245C60.4361 59.4422 59.901 59.2129 59.3658 59.2129H58.9071C58.3719 59.2129 57.8367 59.4422 57.4544 59.8245C57.378 59.901 57.2251 59.9774 57.0721 59.9774H56.6134C56.4605 59.9774 56.3076 59.901 56.2311 59.8245C55.8489 59.4422 55.3137 59.2129 54.7785 59.2129H54.3198C53.7846 59.2129 53.2494 59.4422 52.8671 59.8245L52.7142 59.9774H52.4084C53.173 57.3015 55.6195 55.3902 58.4483 55.3902ZM51.5674 61.5065H53.4023L54.014 60.8949C54.0904 60.8184 54.2433 60.742 54.3962 60.742H54.855C55.0079 60.742 55.1608 60.8184 55.2372 60.8949C55.6195 61.2771 56.1547 61.5065 56.6899 61.5065H57.1486C57.6838 61.5065 58.219 61.2771 58.6012 60.8949C58.6777 60.8184 58.8306 60.742 58.9835 60.742H59.4422C59.5951 60.742 59.7481 60.8184 59.8245 60.8949C60.2068 61.2771 60.742 61.5065 61.2771 61.5065H61.7359C62.271 61.5065 62.8062 61.2771 63.1885 60.8949C63.265 60.8184 63.4179 60.742 63.5708 60.742H64.0295C64.1824 60.742 64.3353 60.8184 64.4118 60.8949C64.794 61.2771 65.3292 61.5065 65.8644 61.5065H66.3231C66.8583 61.5065 67.3935 61.2771 67.7758 60.8949C67.8522 60.8184 68.0051 60.742 68.158 60.742H68.6168C68.7697 60.742 68.9226 60.8184 68.999 60.8949L69.6107 61.5065H71.4456C71.9043 61.5065 72.2101 61.8123 72.2101 62.271C72.2101 62.7298 71.9043 63.0356 71.4456 63.0356H51.5674C51.1087 63.0356 50.8029 62.7298 50.8029 62.271C50.8029 61.8123 51.1087 61.5065 51.5674 61.5065ZM64.4882 72.2101H58.4483C55.6195 72.2101 53.173 70.2988 52.4849 67.6229H70.5281C69.7636 70.2988 67.317 72.2101 64.4882 72.2101ZM71.4456 66.0938H51.5674C51.1087 66.0938 50.8029 65.788 50.8029 65.3292C50.8029 64.8705 51.1087 64.5647 51.5674 64.5647H71.4456C71.9043 64.5647 72.2101 64.8705 72.2101 65.3292C72.2101 65.788 71.8278 66.0938 71.4456 66.0938Z" fill="#F4976E"/>
<path d="M39.9462 50.8793C39.6404 49.9618 38.7994 49.2737 37.729 49.2737C37.1174 49.2737 36.5822 49.5031 36.2 49.8854C35.8177 49.5031 35.2825 49.2737 34.6709 49.2737C33.6005 49.2737 32.7595 49.9618 32.4537 50.8793C28.8603 51.5674 26.2609 54.7785 26.2609 58.4483V64.4882C26.2609 68.158 28.9368 71.3691 32.4537 72.0572C32.7595 72.9746 33.6005 73.6627 34.6709 73.6627C35.2825 73.6627 35.8177 73.4333 36.2 73.0511C36.5822 73.4333 37.1174 73.6627 37.729 73.6627C38.7994 73.6627 39.6404 72.9746 39.9462 72.0572C43.5396 71.3691 46.139 68.158 46.139 64.4882V58.4483C46.2155 54.7785 43.5396 51.5674 39.9462 50.8793ZM27.8664 64.4882V58.4483C27.8664 55.6195 29.7778 53.1729 32.4537 52.4848V52.7906L32.3008 52.9436C31.9185 53.3258 31.6891 53.861 31.6891 54.3962V54.8549C31.6891 55.3901 31.9185 55.9253 32.3008 56.3076C32.3772 56.384 32.4537 56.5369 32.4537 56.6898V57.1486C32.4537 57.3015 32.3772 57.4544 32.3008 57.5308C31.9185 57.9131 31.6891 58.4483 31.6891 58.9835V59.4422C31.6891 59.9774 31.9185 60.5125 32.3008 60.8948C32.3772 60.9713 32.4537 61.1242 32.4537 61.2771V61.7358C32.4537 61.8887 32.3772 62.0416 32.3008 62.1181C31.9185 62.5004 31.6891 63.0355 31.6891 63.5707V64.0294C31.6891 64.5646 31.9185 65.0998 32.3008 65.4821C32.3772 65.5585 32.4537 65.7114 32.4537 65.8644V66.3231C32.4537 66.476 32.3772 66.6289 32.3008 66.7054C31.9185 67.0876 31.6891 67.6228 31.6891 68.158V68.6167C31.6891 69.1519 31.9185 69.6871 32.3008 70.0694L32.4537 70.2223V70.5281C29.7778 69.7635 27.8664 67.317 27.8664 64.4882ZM34.7473 72.2101C34.2886 72.2101 33.9828 71.9043 33.9828 71.4455V69.6106L33.3711 68.999C33.2947 68.9225 33.2182 68.7696 33.2182 68.6167V68.158C33.2182 68.0051 33.2947 67.8522 33.3711 67.7757C33.7534 67.3934 33.9828 66.8583 33.9828 66.3231V65.8644C33.9828 65.3292 33.7534 64.794 33.3711 64.4117C33.2947 64.3353 33.2182 64.1824 33.2182 64.0294V63.5707C33.2182 63.4178 33.2947 63.2649 33.3711 63.1884C33.7534 62.8062 33.9828 62.271 33.9828 61.7358V61.2771C33.9828 60.7419 33.7534 60.2067 33.3711 59.8245C33.2947 59.748 33.2182 59.5951 33.2182 59.4422V58.9835C33.2182 58.8305 33.2947 58.6776 33.3711 58.6012C33.7534 58.2189 33.9828 57.6837 33.9828 57.1486V56.6898C33.9828 56.1546 33.7534 55.6195 33.3711 55.2372C33.2947 55.1607 33.2182 55.0078 33.2182 54.8549V54.3962C33.2182 54.2433 33.2947 54.0904 33.3711 54.0139L33.9828 53.4023V51.5674C33.9828 51.1086 34.2886 50.8028 34.7473 50.8028C35.206 50.8028 35.5119 51.1086 35.5119 51.5674V71.4455C35.5119 71.8278 35.1296 72.2101 34.7473 72.2101ZM38.57 71.4455C38.57 71.9043 38.2642 72.2101 37.8055 72.2101C37.3468 72.2101 37.041 71.9043 37.041 71.4455V51.5674C37.041 51.1086 37.3468 50.8028 37.8055 50.8028C38.2642 50.8028 38.57 51.1086 38.57 51.5674V71.4455ZM44.6864 64.4882C44.6864 67.317 42.775 69.7635 40.0991 70.4516V52.4848C42.775 53.1729 44.6864 55.6195 44.6864 58.4483V64.4882Z" fill="#F4976E"/>
<path d="M67.4697 27.943C67.1639 27.0255 66.3229 26.3374 65.2526 26.3374C64.6409 26.3374 64.1057 26.5668 63.7235 26.9491C63.3412 26.5668 62.806 26.3374 62.1944 26.3374C61.124 26.3374 60.283 27.0255 59.9772 27.943C56.3839 28.6311 53.7844 31.8421 53.7844 35.512V41.5519C53.7844 45.2217 56.4603 48.4328 59.9772 49.1208C60.283 50.0383 61.124 50.7264 62.1944 50.7264C62.806 50.7264 63.3412 50.497 63.7235 50.1148C64.1057 50.497 64.6409 50.7264 65.2526 50.7264C66.3229 50.7264 67.1639 50.0383 67.4697 49.1208C71.0631 48.4328 73.6626 45.2217 73.6626 41.5519V35.512C73.739 31.8421 71.0631 28.6311 67.4697 27.943ZM55.3899 41.5519V35.512C55.3899 32.6831 57.3013 30.2366 59.9772 29.5485V47.5918C57.3013 46.8272 55.3899 44.3807 55.3899 41.5519ZM62.2708 49.2738C61.8121 49.2738 61.5063 48.9679 61.5063 48.5092V28.6311C61.5063 28.1723 61.8121 27.8665 62.2708 27.8665C62.7296 27.8665 63.0354 28.1723 63.0354 28.6311V48.5092C63.0354 48.8915 62.6531 49.2738 62.2708 49.2738ZM66.0936 46.6743V48.5092C66.0936 48.9679 65.7877 49.2738 65.329 49.2738C64.8703 49.2738 64.5645 48.9679 64.5645 48.5092V28.6311C64.5645 28.1723 64.8703 27.8665 65.329 27.8665C65.7877 27.8665 66.0936 28.1723 66.0936 28.6311V30.466L66.7052 31.0776C66.7817 31.1541 66.8581 31.307 66.8581 31.4599V31.9186C66.8581 32.0715 66.7817 32.2244 66.7052 32.3009C66.3229 32.6831 66.0936 33.2183 66.0936 33.7535V34.2122C66.0936 34.7474 66.3229 35.2826 66.7052 35.6649C66.7817 35.7413 66.8581 35.8942 66.8581 36.0471V36.5059C66.8581 36.6588 66.7817 36.8117 66.7052 36.8881C66.3229 37.2704 66.0936 37.8056 66.0936 38.3408V38.7995C66.0936 39.3347 66.3229 39.8699 66.7052 40.2521C66.7817 40.3286 66.8581 40.4815 66.8581 40.6344V41.0931C66.8581 41.246 66.7817 41.3989 66.7052 41.4754C66.3229 41.8577 66.0936 42.3929 66.0936 42.928V43.3868C66.0936 43.9219 66.3229 44.4571 66.7052 44.8394C66.7817 44.9159 66.8581 45.0688 66.8581 45.2217V45.6804C66.8581 45.8333 66.7817 45.9862 66.7052 46.0627L66.0936 46.6743ZM72.2099 41.5519C72.2099 44.3807 70.2986 46.8272 67.6227 47.5153V47.2095L67.7756 47.0566C68.1578 46.6743 68.3872 46.1391 68.3872 45.6039V45.1452C68.3872 44.61 68.1578 44.0749 67.7756 43.6926C67.6991 43.6161 67.6227 43.4632 67.6227 43.3103V42.8516C67.6227 42.6987 67.6991 42.5458 67.7756 42.4693C68.1578 42.087 68.3872 41.5519 68.3872 41.0167V40.5579C68.3872 40.0228 68.1578 39.4876 67.7756 39.1053C67.6991 39.0289 67.6227 38.876 67.6227 38.723V38.2643C67.6227 38.1114 67.6991 37.9585 67.7756 37.882C68.1578 37.4998 68.3872 36.9646 68.3872 36.4294V35.9707C68.3872 35.4355 68.1578 34.9003 67.7756 34.5181C67.6991 34.4416 67.6227 34.2887 67.6227 34.1358V33.6771C67.6227 33.5241 67.6991 33.3712 67.7756 33.2948C68.1578 32.9125 68.3872 32.3773 68.3872 31.8421V31.3834C68.3872 30.8482 68.1578 30.3131 67.7756 29.9308L67.6227 29.7779V29.4721C70.2986 30.1601 72.2099 32.6067 72.2099 35.4355V41.5519Z" fill="#F4976E"/>
</svg>
