<svg width="30" height="38" viewBox="0 0 30 38" fill="none" xmlns="http://www.w3.org/2000/svg">
<path d="M22.7314 7.26214C22.6487 7.12986 22.5316 7.02036 22.3915 6.94434C22.2513 6.86831 22.093 6.82836 21.9319 6.8284C21.7708 6.82844 21.6124 6.86845 21.4723 6.94454C21.3323 7.02063 21.2152 7.13018 21.1326 7.2625C19.745 9.54219 18.4859 11.8913 17.3609 14.2998C15.5157 9.49343 13.2281 4.8532 10.5251 0.433716L10.5235 0.431776C10.486 0.37376 10.4417 0.320061 10.3913 0.27174C10.3792 0.259865 10.3665 0.24799 10.3534 0.236946C10.3026 0.190713 10.2465 0.150241 10.186 0.116336L10.1836 0.115584C10.1224 0.08339 10.0576 0.0579716 9.99043 0.0398208C9.97346 0.0347937 9.95691 0.0305187 9.93953 0.0266791C9.79943 -0.00889303 9.65206 -0.00889303 9.51196 0.0266791C9.49458 0.0306374 9.47803 0.0345958 9.46102 0.0398208C9.3944 0.0577878 9.33014 0.0829396 9.26946 0.114792L9.26532 0.116336C9.20487 0.150231 9.14873 0.190704 9.09801 0.236946C9.08469 0.248149 9.07215 0.259747 9.06002 0.27174C9.0097 0.32007 8.96536 0.373767 8.92785 0.431776L8.92623 0.433716C8.56206 1.01662 0 14.8206 0 23.8985C0 34.2956 5.02414 38 9.72574 38C10.9652 38 12.1888 37.7341 13.3065 37.2218C14.4243 36.7094 15.4076 35.9638 16.1841 35.0398C16.8107 35.9501 17.6641 36.6972 18.6674 37.2139C19.6707 37.7306 20.7925 38.0007 21.932 38C25.8322 38 30 34.9501 30 26.3893C30 18.9762 23.028 7.73682 22.7314 7.26214ZM9.72574 36.2172C9.28403 36.0826 7.6946 33.6462 7.6946 23.8984C7.6946 18.3664 8.8613 10.7504 9.72574 5.86666C10.5906 10.7496 11.7573 18.3644 11.7573 23.8984C11.7573 33.6478 10.1678 36.0831 9.72574 36.2172ZM1.86222 23.8984C1.86222 18.5175 5.2294 11.0817 7.76574 6.24314C6.90614 11.1752 5.83238 18.429 5.83238 23.8984C5.83238 28.1841 6.13344 33.0157 7.2852 35.7655C3.88612 34.417 1.86222 30.125 1.86222 23.8984ZM12.1662 35.7655C13.3184 33.0159 13.6195 28.1843 13.6195 23.8986C13.6195 18.4292 12.5457 11.1758 11.6862 6.24374C13.5543 9.73126 15.1141 13.3622 16.3494 17.0985L16.3498 17.1004C16.73 18.3005 17.0378 19.5206 17.2716 20.7545C17.2752 20.7746 17.2789 20.7955 17.2825 20.8156C17.328 21.0665 17.3678 21.3119 17.4029 21.5535C17.4078 21.5875 17.4134 21.6216 17.4183 21.6556C17.4502 21.8812 17.4765 22.1021 17.4991 22.3193C17.5036 22.3618 17.5096 22.4047 17.5137 22.4469C17.5339 22.656 17.5484 22.8589 17.5605 23.0599C17.5634 23.1048 17.5678 23.1504 17.5702 23.1945C17.5824 23.435 17.5892 23.67 17.5892 23.8984C17.5892 24.1334 17.5865 24.3655 17.581 24.5946C17.494 28.035 16.7616 30.9067 15.4484 32.9323C15.4378 32.952 15.4282 32.9723 15.4197 32.993C14.6671 34.2214 13.5286 35.1916 12.1662 35.7653V35.7655ZM21.932 36.2187C20.0059 36.2187 18.4221 35.2636 17.3253 33.4514C18.4601 31.5151 19.2324 28.8846 19.4099 25.4349C19.414 25.3565 19.4171 25.278 19.4207 25.1991C19.4389 24.7763 19.4514 24.3456 19.4514 23.8984C19.4514 23.6359 19.4432 23.3661 19.4284 23.0901C19.4219 22.9656 19.4102 22.8388 19.401 22.7128C19.39 22.5659 19.3799 22.4199 19.3654 22.2691C19.3484 22.0959 19.3262 21.9204 19.3044 21.7449C19.2914 21.6425 19.2795 21.5408 19.2651 21.4364C19.2348 21.2199 19.2001 21.0019 19.1629 20.7827C19.1524 20.7201 19.1427 20.6582 19.1314 20.5953C19.0849 20.3324 19.0339 20.0677 18.9783 19.8013L18.9662 19.7433C18.7689 18.8047 18.5196 17.8492 18.229 16.8878C19.3194 14.3694 20.5556 11.9111 21.932 9.52426C23.77 12.7196 28.1378 20.8926 28.1378 26.3893C28.1378 32.4525 25.7599 36.2187 21.932 36.2187Z" fill="#4E9DD3"/>
</svg>
