<svg width="46" height="39" viewBox="0 0 46 39" fill="none" xmlns="http://www.w3.org/2000/svg">
<path d="M33.45 15.397C32.7697 11.8438 29.6232 9.30586 25.9664 9.30586H20.0135C16.3567 9.30586 13.2102 11.9284 12.5299 15.397C11.5944 15.6508 10.9141 16.4968 10.9141 17.5119C10.9141 18.1041 11.1692 18.6117 11.5094 19.0347C11.1692 19.4577 10.9141 19.9653 10.9141 20.5575C10.9141 21.5727 11.5944 22.4187 12.5299 22.6725C13.2102 26.2256 16.3567 28.7636 20.0135 28.7636H25.9664C29.6232 28.7636 32.7697 26.141 33.45 22.6725C34.3855 22.4187 35.0658 21.5727 35.0658 20.5575C35.0658 19.9653 34.8107 19.4577 34.4705 19.0347C34.8107 18.6117 35.0658 18.1041 35.0658 17.5119C35.0658 16.4968 34.3855 15.6508 33.45 15.397ZM20.0135 10.744H25.9664C28.7727 10.744 31.1539 12.6052 31.9193 15.2278H31.6641L31.4941 15.0586C31.0689 14.6356 30.5586 14.4664 30.0484 14.4664H29.6232C29.1129 14.4664 28.6027 14.6356 28.1775 15.0586C28.0924 15.1432 27.9223 15.2278 27.8373 15.2278H27.4121C27.242 15.2278 27.157 15.1432 27.0719 15.0586C26.6467 14.6356 26.1365 14.4664 25.6262 14.4664H25.201C24.6908 14.4664 24.1805 14.6356 23.7553 15.0586C23.6703 15.1432 23.5002 15.2278 23.4152 15.2278H22.9899C22.8199 15.2278 22.7348 15.1432 22.6498 15.0586C22.2246 14.6356 21.7143 14.4664 21.2041 14.4664H20.7789C20.2686 14.4664 19.7584 14.6356 19.3332 15.0586C19.2481 15.1432 19.0781 15.2278 18.993 15.2278H18.5678C18.3977 15.2278 18.3127 15.1432 18.2276 15.0586C17.8024 14.6356 17.2922 14.4664 16.7819 14.4664H16.3567C15.8465 14.4664 15.3362 14.6356 14.911 15.0586L14.741 15.2278H14.1457C14.826 12.6898 17.2071 10.744 20.0135 10.744ZM13.2102 16.7505H14.9961L15.5914 16.1584C15.6764 16.0738 15.8465 16.0738 16.0166 16.0738H16.4418C16.6119 16.0738 16.6969 16.1584 16.7819 16.243C17.2071 16.6659 17.7174 16.8351 18.2276 16.8351H18.6528C19.1631 16.8351 19.6733 16.6659 20.0985 16.243C20.1836 16.1584 20.3537 16.0738 20.4387 16.0738H20.949C21.119 16.0738 21.2041 16.1584 21.2891 16.243C21.7143 16.6659 22.2246 16.8351 22.7348 16.8351H23.16C23.6703 16.8351 24.1805 16.6659 24.6057 16.243C24.6908 16.1584 24.8609 16.0738 24.9459 16.0738H25.3711C25.5412 16.0738 25.6262 16.1584 25.7113 16.243C26.1365 16.6659 26.6467 16.8351 27.157 16.8351H27.7523C28.2625 16.8351 28.7727 16.6659 29.198 16.243C29.283 16.0738 29.4531 16.0738 29.5381 16.0738H29.9633C30.1334 16.0738 30.2184 16.1584 30.3035 16.243L30.8988 16.8351H32.8547C33.2799 16.8351 33.6201 17.1735 33.6201 17.5965C33.6201 18.0195 33.2799 18.3579 32.8547 18.3579H13.2102C12.785 18.3579 12.4448 18.0195 12.4448 17.5965C12.4448 17.1735 12.785 16.7505 13.2102 16.7505ZM25.9664 27.3254H20.0135C17.2071 27.3254 14.826 25.4642 14.0606 22.8417H31.8342C31.1539 25.3796 28.7727 27.3254 25.9664 27.3254ZM32.8547 21.3189H13.2102C12.785 21.3189 12.4448 20.9805 12.4448 20.5575C12.4448 20.1345 12.785 19.7961 13.2102 19.7961H32.8547C33.2799 19.7961 33.6201 20.1345 33.6201 20.5575C33.6201 20.9805 33.1949 21.3189 32.8547 21.3189Z" fill="#4E9DD3"/>
<path d="M10.9131 1.69197C16.3558 1.69197 21.5433 6.7679 21.7984 7.02169C22.1386 7.36009 22.5638 7.44469 22.9039 7.44469C23.2441 7.44469 23.6693 7.27549 24.0095 7.02169C24.0945 7.02169 26.6457 4.48373 30.1324 2.96095C31.9183 2.19957 33.5341 1.77657 35.0648 1.77657C37.2759 1.77657 39.2318 2.62256 40.9327 4.31453C43.0587 6.3449 43.9091 8.79826 43.654 11.59C42.7185 21.9111 26.8158 34.0933 22.9039 36.9696C21.2031 35.7007 17.2912 32.7397 13.2943 28.9328C6.57602 22.2495 2.74917 16.3275 2.23892 11.5054C2.06884 8.71367 2.91925 6.3449 4.96024 4.22994C6.83115 2.36876 8.95717 1.69197 10.9131 1.69197ZM10.9131 0C8.1918 0 5.81065 1.01518 3.76966 3.04555C1.30347 5.58351 0.282977 8.37527 0.5381 11.6746C1.04835 16.9197 4.96024 23.0954 12.1887 30.0325C16.3558 34.0087 20.4377 37.1388 21.9685 38.2386L22.989 39L24.0095 38.2386C28.7718 34.7701 44.4193 22.5879 45.4398 11.6746C45.78 8.29067 44.6745 5.41432 42.2083 3.04555C40.1673 1.01518 37.7861 0 35.0648 0C33.2789 0 31.408 0.422994 29.4521 1.35358C27.4111 2.28416 25.3701 3.55315 23.4142 5.32972H23.3291L22.9039 5.75271C22.1386 4.90672 16.781 0 10.9131 0Z" fill="#4E9DD3"/>
</svg>
