<svg width="50" height="34" viewBox="0 0 50 34" fill="none" xmlns="http://www.w3.org/2000/svg">
<path d="M49.8333 17.5325L43.1667 9.74933C43 9.58548 42.75 9.42162 42.5 9.42162H33.3333V22.5301H0V28.265C0 28.7566 0.333333 29.0843 0.833333 29.0843H5.66667C5.58333 29.3301 5.58333 29.6578 5.58333 29.9036C5.58333 32.1976 7.41667 34 9.75 34C12.0833 34 13.9167 32.1976 13.9167 29.9036C13.9167 29.6578 13.9167 29.3301 13.8333 29.0843H36.75C36.6667 29.3301 36.6667 29.6578 36.6667 29.9036C36.6667 32.1976 38.5 34 40.8333 34C43.1667 34 45 32.1976 45 29.9036C45 29.6578 45 29.3301 44.9167 29.0843H49.1667C49.6667 29.0843 50 28.7566 50 28.265V18.0241C50 17.8602 49.9167 17.6963 49.8333 17.5325ZM47.4166 17.2048H41.6666V14.3374H44.9166L47.4166 17.2048ZM9.75017 32.3613C8.33351 32.3613 7.25017 31.2963 7.25017 29.9035C7.25017 29.4939 7.33351 29.0842 7.58351 28.6746C8.00017 27.9372 8.83351 27.4457 9.75017 27.4457C10.0002 27.4457 10.1668 27.4457 10.4168 27.5276C10.8335 27.6095 11.2502 27.8553 11.5002 28.183C11.6668 28.3469 11.7502 28.5107 11.9168 28.6746C12.1668 29.0842 12.2502 29.4939 12.2502 29.9035C12.2502 31.2963 11.0835 32.3613 9.75017 32.3613ZM40.8333 32.3613C39.4166 32.3613 38.3333 31.2963 38.3333 29.9035C38.3333 29.4939 38.4166 29.0842 38.6666 28.6746C39.0833 27.9372 39.9166 27.4457 40.8333 27.4457C41.0833 27.4457 41.25 27.4457 41.5 27.5276C41.9166 27.6095 42.3333 27.8553 42.5833 28.183C42.75 28.3469 42.8333 28.5107 43 28.6746C43.25 29.0842 43.3333 29.4939 43.3333 29.9035C43.3333 31.2963 42.25 32.3613 40.8333 32.3613ZM48.3333 27.4458H44.1667C44.1667 27.3638 44.0833 27.3638 44.0833 27.2819C44 27.2 43.9167 27.1181 43.8333 27.0361C43.75 26.9542 43.75 26.9542 43.6667 26.8723C43.5833 26.7903 43.5 26.7084 43.4167 26.7084C43.3333 26.6265 43.3333 26.6265 43.25 26.6265C43.1667 26.5446 43.0833 26.5446 43 26.4626C42.9167 26.4626 42.9167 26.3807 42.8333 26.3807C42.75 26.2988 42.6667 26.2988 42.5833 26.2168C42.5 26.2168 42.4167 26.1349 42.4167 26.1349C42.3333 26.1349 42.25 26.053 42.0833 26.053C42 26.053 41.9167 26.053 41.9167 25.9711C41.8333 25.9711 41.6667 25.8891 41.5833 25.8891C41.5 25.8891 41.5 25.8891 41.4167 25.8891C41.25 25.8891 41.0833 25.8891 40.9167 25.8891C40.75 25.8891 40.5833 25.8891 40.4167 25.8891C40.3333 25.8891 40.3333 25.8891 40.25 25.8891C40.1667 25.8891 40 25.8891 39.9167 25.9711C39.8333 25.9711 39.75 25.9709 39.75 26.0528C39.6667 26.0528 39.5833 26.1349 39.4167 26.1349C39.3333 26.1349 39.25 26.2167 39.25 26.2167C39.1667 26.2986 39.0833 26.2988 39 26.3807C38.9167 26.3807 38.9167 26.4625 38.8333 26.4625C38.75 26.5444 38.6667 26.5446 38.5833 26.6265C38.5 26.6265 38.5 26.7083 38.4167 26.7083C38.3333 26.7902 38.25 26.8723 38.1667 26.8723C38.0833 26.9542 38.0833 26.9542 38 27.0361C37.9167 27.1181 37.8333 27.2 37.75 27.2819C37.75 27.3638 37.6667 27.3638 37.6667 27.4458H13.0833C13.0833 27.3638 13 27.3638 13 27.2819C12.9167 27.2 12.8333 27.1181 12.75 27.0361C12.6667 26.9542 12.6667 26.9542 12.5833 26.8723C12.5 26.7903 12.4167 26.7084 12.3333 26.7084C12.25 26.6265 12.25 26.6265 12.1667 26.6265C12.0833 26.5446 12 26.5446 11.9167 26.4626C11.8333 26.4626 11.8333 26.3807 11.75 26.3807C11.6667 26.2988 11.5833 26.2988 11.5 26.2168C11.4167 26.2168 11.3333 26.1349 11.3333 26.1349C11.25 26.1349 11.1667 26.053 11 26.053C10.9167 26.053 10.8333 26.053 10.8333 25.9711C10.75 25.9711 10.5833 25.8891 10.5 25.8891C10.4167 25.8891 10.4167 25.8891 10.3333 25.8891C10.1667 25.8891 10 25.8891 9.83333 25.8891C9.66667 25.8891 9.5 25.8891 9.33333 25.8891C9.25 25.8891 9.25 25.8891 9.16667 25.8891C9.08333 25.8891 8.91667 25.8891 8.83333 25.9711C8.75 25.9711 8.66668 25.9709 8.66668 26.0528C8.58334 26.0528 8.5 26.1349 8.41667 26.1349C8.33333 26.1349 8.25 26.2168 8.16667 26.2168C8.08333 26.2168 8 26.2988 7.91667 26.2988C7.83333 26.2988 7.75 26.3807 7.66667 26.3807C7.58333 26.4626 7.5 26.4626 7.41667 26.5446C7.33333 26.6265 7.25 26.6265 7.25 26.7084C7.16667 26.7903 7.16667 26.7903 7.08333 26.8723C7 26.9542 6.91667 26.9542 6.91667 27.0361C6.66667 27.1181 6.66668 27.1998 6.58334 27.2818C6.50001 27.3637 6.50001 27.4456 6.41668 27.4456H1.66668V24.1685H34.1667C34.6667 24.1685 35 23.8408 35 23.3492V11.06H42.0833L43.5 12.6986H40.8333C40.3333 12.6986 40 13.0263 40 13.5179V18.0239C40 18.5155 40.3333 18.8433 40.8333 18.8433H48.3333V27.4458Z" fill="#4E9DD3"/>
<path d="M28.5001 6.63616C27.7501 2.78555 24.3334 0 20.2501 0H13.7501C9.75012 0 6.33345 2.78555 5.50012 6.63616C4.50012 6.96387 3.75012 7.86508 3.75012 8.93014C3.75012 9.58557 4.00012 10.1591 4.41678 10.5687C4.00012 10.9783 3.75012 11.5518 3.75012 12.2073C3.75012 13.2723 4.50012 14.2555 5.50012 14.5012C6.25012 18.3519 9.66678 21.1374 13.7501 21.1374H20.2501C24.2501 21.1374 27.6668 18.3519 28.5001 14.5012C29.5001 14.1735 30.2501 13.2723 30.2501 12.2073C30.2501 11.5518 30.0001 10.9783 29.5834 10.5687C30.0001 10.1591 30.2501 9.58557 30.2501 8.93014C30.3334 7.86508 29.5834 6.96387 28.5001 6.63616ZM13.7501 1.63856H20.2501C23.3334 1.63856 25.9168 3.68676 26.7501 6.55423H26.4168L26.2501 6.39038C25.9168 5.89881 25.3334 5.73495 24.7501 5.73495H24.2501C23.6668 5.73495 23.0834 5.98074 22.6668 6.39038C22.5834 6.47231 22.4168 6.55423 22.2501 6.55423H21.7501C21.5834 6.55423 21.4168 6.47231 21.3334 6.39038C20.9168 5.89881 20.3335 5.73495 19.7501 5.73495H19.2501C18.6668 5.73495 18.0834 5.98074 17.6668 6.39038C17.5834 6.47231 17.4168 6.55423 17.2501 6.55423H16.7501C16.5834 6.55423 16.4168 6.47231 16.3334 6.39038C16.0001 5.89881 15.4168 5.73495 14.8334 5.73495H14.3335C13.7501 5.73495 13.1668 5.98074 12.7501 6.39038C12.6668 6.47231 12.5001 6.55423 12.3335 6.55423H11.8334C11.6668 6.55423 11.5001 6.47231 11.4168 6.39038C11.0001 5.89881 10.4168 5.73495 9.83345 5.73495H9.33345C8.75012 5.73495 8.16678 5.98074 7.75012 6.39038L7.58345 6.47231H7.33345C8.08345 3.68676 10.7501 1.63856 13.7501 1.63856ZM6.25012 8.11086H8.25012L8.91678 7.45544C9.08345 7.37351 9.16678 7.29158 9.33345 7.29158H9.83345C10.0001 7.29158 10.1668 7.37351 10.2501 7.45544C10.6668 7.86508 11.2501 8.11086 11.8334 8.11086H12.3335C12.9168 8.11086 13.5001 7.86508 13.9168 7.45544C14.0001 7.37351 14.1668 7.29158 14.3335 7.29158H14.8334C15.0001 7.29158 15.1668 7.37351 15.2501 7.45544C15.6668 7.86508 16.2501 8.11086 16.8334 8.11086H17.3334C17.9168 8.11086 18.5001 7.86508 18.9168 7.45544C19.0001 7.37351 19.1668 7.29158 19.2501 7.29158H19.7501C19.9168 7.29158 20.0834 7.37351 20.1668 7.45544C20.5834 7.86508 21.1668 8.11086 21.7501 8.11086H22.2501C22.8334 8.11086 23.4168 7.86508 23.8334 7.45544C23.9168 7.37351 24.0834 7.29158 24.2501 7.29158H24.7501C24.9168 7.29158 25.0834 7.37351 25.1668 7.45544L25.8334 8.11086H27.8334C28.2501 8.11086 28.6668 8.43857 28.6668 8.93014C28.6668 9.42171 28.3334 9.74942 27.8334 9.74942H6.25012C5.83345 9.74942 5.41678 9.42171 5.41678 8.93014C5.41678 8.43857 5.83345 8.11086 6.25012 8.11086ZM20.3334 19.4988H13.8334C10.7501 19.4988 8.16678 17.4506 7.33345 14.5832H26.8334C26.0001 17.5326 23.4168 19.4988 20.3334 19.4988ZM27.8334 13.0265H6.25012C5.83345 13.0265 5.41678 12.6988 5.41678 12.2073C5.41678 11.7157 5.75012 11.388 6.25012 11.388H27.7501C28.1668 11.388 28.5834 11.7157 28.5834 12.2073C28.5834 12.6988 28.2501 13.0265 27.8334 13.0265Z" fill="#4E9DD3"/>
</svg>
