<svg width="16" height="13" viewBox="0 0 16 13" fill="none" xmlns="http://www.w3.org/2000/svg">
<path d="M14.9732 0.546845L0.339879 5.6234C-0.134095 5.78784 -0.105381 6.39335 0.382518 6.52159L4.10099 7.49912L5.48873 11.4192C5.63369 11.8287 6.21657 11.9529 6.55399 11.6461L8.47653 9.89857L12.2487 12.3636C12.7104 12.6652 13.3678 12.4411 13.485 11.9421L15.9834 1.30846C16.1057 0.787594 15.5301 0.35363 14.9732 0.546845ZM13.1385 2.90672L6.34146 8.25766C6.27371 8.31101 6.23059 8.38483 6.22051 8.46485L5.95882 10.5358C5.95027 10.6034 5.8441 10.6123 5.82144 10.5474L4.74476 7.45885C4.69544 7.31745 4.75974 7.16424 4.90105 7.08623L12.9277 2.65443C13.1123 2.55243 13.3013 2.77865 13.1385 2.90672Z" fill="black"/>
</svg>
