<svg width="17" height="11" viewBox="0 0 17 11" fill="none" xmlns="http://www.w3.org/2000/svg">

<path fill-rule="evenodd" clip-rule="evenodd" d="M8.31743 10.4581H9.33359C9.33359 10.4581 9.64053 10.4234 9.79724 10.2492C9.94148 10.0893 9.93686 9.78897 9.93686 9.78897C9.93686 9.78897 9.91702 8.38305 10.5498 8.17602C11.1736 7.97208 11.9747 9.53482 12.8238 10.1357C13.4658 10.5904 13.9537 10.4907 13.9537 10.4907L16.224 10.4581C16.224 10.4581 17.4116 10.3827 16.8485 9.41988C16.8023 9.34111 16.5205 8.70764 15.1605 7.40596C13.737 6.04359 13.9276 6.26395 15.6424 3.90735C16.6867 2.47217 17.1042 1.59597 16.9738 1.2207C16.8494 0.863269 16.0813 0.957743 16.0813 0.957743L13.5251 0.974163C13.5251 0.974163 13.3357 0.94751 13.1951 1.03413C13.0578 1.11908 12.9694 1.31707 12.9694 1.31707C12.9694 1.31707 12.5648 2.42767 12.0253 3.37216C10.887 5.36515 10.4319 5.47033 10.2459 5.34658C9.81316 5.05817 9.92117 4.18792 9.92117 3.56968C9.92117 1.63833 10.2053 0.833048 9.36797 0.624588C9.09011 0.55534 8.88563 0.50965 8.17504 0.502273C7.26297 0.492516 6.49099 0.505128 6.05388 0.725962C5.76308 0.872789 5.53876 1.19999 5.67538 1.21879C5.84432 1.24211 6.22696 1.32517 6.42983 1.61001C6.69177 1.97744 6.68254 2.80271 6.68254 2.80271C6.68254 2.80271 6.83301 5.07625 6.33105 5.35872C5.98649 5.55243 5.51383 5.15692 4.49906 3.34884C3.9791 2.42267 3.58653 1.39894 3.58653 1.39894C3.58653 1.39894 3.51084 1.20761 3.37583 1.10528C3.21197 0.981301 2.98303 0.9418 2.98303 0.9418L0.553996 0.958218C0.553996 0.958218 0.189353 0.96869 0.0554968 1.13217C-0.0635891 1.27757 0.0460345 1.57836 0.0460345 1.57836C0.0460345 1.57836 1.94772 6.16591 4.10096 8.47776C6.07534 10.5973 8.31743 10.4581 8.31743 10.4581Z" fill="black"/>
</svg>
